<?xml version="1.0" encoding="utf-8" standalone="no"?>
<!DOCTYPE svg PUBLIC "-//W3C//DTD SVG 1.1//EN"
  "http://www.w3.org/Graphics/SVG/1.1/DTD/svg11.dtd">
<svg xmlns:xlink="http://www.w3.org/1999/xlink" width="1152pt" height="648pt" viewBox="0 0 1152 648" xmlns="http://www.w3.org/2000/svg" version="1.1">
 <metadata>
  <rdf:RDF xmlns:dc="http://purl.org/dc/elements/1.1/" xmlns:cc="http://creativecommons.org/ns#" xmlns:rdf="http://www.w3.org/1999/02/22-rdf-syntax-ns#">
   <cc:Work>
    <dc:type rdf:resource="http://purl.org/dc/dcmitype/StillImage"/>
    <dc:date>2026-05-31T03:16:44.437584</dc:date>
    <dc:format>image/svg+xml</dc:format>
    <dc:creator>
     <cc:Agent>
      <dc:title>Matplotlib v3.10.3, https://matplotlib.org/</dc:title>
     </cc:Agent>
    </dc:creator>
   </cc:Work>
  </rdf:RDF>
 </metadata>
 <defs>
  <style type="text/css">*{stroke-linejoin: round; stroke-linecap: butt}</style>
 </defs>
 <g id="figure_1">
  <g id="patch_1">
   <path d="M 0 648 
L 1152 648 
L 1152 0 
L 0 0 
z
" style="fill: #ffffff"/>
  </g>
  <g id="axes_1">
   <g id="patch_2">
    <path d="M 59.76 430.56 
L 235.44 430.56 
Q 246.96 430.56 246.96 419.04 
L 246.96 268.56 
Q 246.96 257.04 235.44 257.04 
L 59.76 257.04 
Q 48.24 257.04 48.24 268.56 
L 48.24 419.04 
Q 48.24 430.56 59.76 430.56 
z
" clip-path="url(#p8184de324d)" style="fill: #fff7e6; stroke: #b7791f; stroke-width: 2; stroke-linejoin: miter"/>
   </g>
   <g id="patch_3">
    <path d="M 322.56 466.56 
L 516.24 466.56 
Q 527.76 466.56 527.76 455.04 
L 527.76 236.16 
Q 527.76 224.64 516.24 224.64 
L 322.56 224.64 
Q 311.04 224.64 311.04 236.16 
L 311.04 455.04 
Q 311.04 466.56 322.56 466.56 
z
" clip-path="url(#p8184de324d)" style="fill: #e6f6ff; stroke: #1864ab; stroke-width: 2; stroke-linejoin: miter"/>
   </g>
   <g id="patch_4">
    <path d="M 592.56 311.76 
L 771.84 311.76 
Q 783.36 311.76 783.36 300.24 
L 783.36 207.36 
Q 783.36 195.84 771.84 195.84 
L 592.56 195.84 
Q 581.04 195.84 581.04 207.36 
L 581.04 300.24 
Q 581.04 311.76 592.56 311.76 
z
" clip-path="url(#p8184de324d)" style="fill: #e6fcf5; stroke: #0b7285; stroke-width: 2; stroke-linejoin: miter"/>
   </g>
   <g id="patch_5">
    <path d="M 840.96 311.76 
L 1045.44 311.76 
Q 1056.96 311.76 1056.96 300.24 
L 1056.96 207.36 
Q 1056.96 195.84 1045.44 195.84 
L 840.96 195.84 
Q 829.44 195.84 829.44 207.36 
L 829.44 300.24 
Q 829.44 311.76 840.96 311.76 
z
" clip-path="url(#p8184de324d)" style="fill: #f3f0ff; stroke: #6741d9; stroke-width: 2; stroke-linejoin: miter"/>
   </g>
   <g id="patch_6">
    <path d="M 840.96 495.36 
L 1045.44 495.36 
Q 1056.96 495.36 1056.96 483.84 
L 1056.96 405.36 
Q 1056.96 393.84 1045.44 393.84 
L 840.96 393.84 
Q 829.44 393.84 829.44 405.36 
L 829.44 483.84 
Q 829.44 495.36 840.96 495.36 
z
" clip-path="url(#p8184de324d)" style="fill: #edf2ff; stroke: #3b5bdb; stroke-width: 2; stroke-linejoin: miter"/>
   </g>
   <g id="patch_7">
    <path d="M 309.196362 385.2 
Q 278.996811 385.2 251.033328 385.2 
" clip-path="url(#p8184de324d)" style="fill: none; stroke: #b7791f; stroke-width: 2; stroke-linecap: round"/>
    <path d="M 258.233328 388.8 
L 251.033328 385.2 
L 258.233328 381.6 
z
" clip-path="url(#p8184de324d)" style="fill: #b7791f; stroke: #b7791f; stroke-width: 2; stroke-linecap: round"/>
   </g>
   <g id="patch_8">
    <path d="M 248.803638 303.84 
Q 279.003189 303.84 306.966672 303.84 
" clip-path="url(#p8184de324d)" style="fill: none; stroke: #1864ab; stroke-width: 2; stroke-linecap: round"/>
    <path d="M 299.766672 300.24 
L 306.966672 303.84 
L 299.766672 307.44 
z
" clip-path="url(#p8184de324d)" style="fill: #1864ab; stroke: #1864ab; stroke-width: 2; stroke-linecap: round"/>
   </g>
   <g id="patch_9">
    <path d="M 529.477734 276.230566 
Q 554.39937 270.000157 577.151701 264.312075 
" clip-path="url(#p8184de324d)" style="fill: none; stroke: #0b7285; stroke-width: 2; stroke-linecap: round"/>
    <path d="M 569.293547 262.565818 
L 577.151701 264.312075 
L 571.039804 269.550844 
z
" clip-path="url(#p8184de324d)" style="fill: #0b7285; stroke: #0b7285; stroke-width: 2; stroke-linecap: round"/>
   </g>
   <g id="patch_10">
    <path d="M 785.2021 253.44 
Q 806.40031 253.44 825.362453 253.44 
" clip-path="url(#p8184de324d)" style="fill: none; stroke: #6741d9; stroke-width: 2; stroke-linecap: round"/>
    <path d="M 818.162453 249.84 
L 825.362453 253.44 
L 818.162453 257.04 
z
" clip-path="url(#p8184de324d)" style="fill: #6741d9; stroke: #6741d9; stroke-width: 2; stroke-linecap: round"/>
   </g>
   <g id="patch_11">
    <path d="M 943.2 313.599902 
Q 943.2 352.799546 943.2 389.763122 
" clip-path="url(#p8184de324d)" style="fill: none; stroke: #3b5bdb; stroke-width: 2; stroke-linecap: round"/>
    <path d="M 946.8 382.563122 
L 943.2 389.763122 
L 939.6 382.563122 
z
" clip-path="url(#p8184de324d)" style="fill: #3b5bdb; stroke: #3b5bdb; stroke-width: 2; stroke-linecap: round"/>
   </g>
   <g id="patch_12">
    <path d="M 1058.803418 444.96 
Q 1090.803396 444.96 1120.567307 444.96 
" clip-path="url(#p8184de324d)" style="fill: none; stroke: #0f766e; stroke-width: 2; stroke-linecap: round"/>
    <path d="M 1113.367307 441.36 
L 1120.567307 444.96 
L 1113.367307 448.56 
z
" clip-path="url(#p8184de324d)" style="fill: #0f766e; stroke: #0f766e; stroke-width: 2; stroke-linecap: round"/>
   </g>
   <g id="line2d_1">
    <path d="M 421.2 338.4 
L 583.2 291.6 
" clip-path="url(#p8184de324d)" style="fill: none; stroke-dasharray: 4.44,1.92; stroke-dashoffset: 0; stroke: #bcccdc; stroke-width: 1.2"/>
   </g>
   <g id="line2d_2">
    <path d="M 432 378 
L 583.2 291.6 
" clip-path="url(#p8184de324d)" style="fill: none; stroke-dasharray: 4.44,1.92; stroke-dashoffset: 0; stroke: #bcccdc; stroke-width: 1.2"/>
   </g>
   <g id="text_1">
    <!-- 4-bit Combination Lock ASIC with 4x4 Matrix Keypad -->
    <g style="fill: #102a43" transform="translate(189.767969 56.032813) scale(0.26 -0.26)">
     <defs>
      <path id="DejaVuSans-Bold-34" d="M 2356 3675 
L 1038 1722 
L 2356 1722 
L 2356 3675 
z
M 2156 4666 
L 3494 4666 
L 3494 1722 
L 4159 1722 
L 4159 850 
L 3494 850 
L 3494 0 
L 2356 0 
L 2356 850 
L 288 850 
L 288 1881 
L 2156 4666 
z
" transform="scale(0.015625)"/>
      <path id="DejaVuSans-Bold-2d" d="M 347 2297 
L 2309 2297 
L 2309 1388 
L 347 1388 
L 347 2297 
z
" transform="scale(0.015625)"/>
      <path id="DejaVuSans-Bold-62" d="M 2400 722 
Q 2759 722 2948 984 
Q 3138 1247 3138 1747 
Q 3138 2247 2948 2509 
Q 2759 2772 2400 2772 
Q 2041 2772 1848 2508 
Q 1656 2244 1656 1747 
Q 1656 1250 1848 986 
Q 2041 722 2400 722 
z
M 1656 2988 
Q 1888 3294 2169 3439 
Q 2450 3584 2816 3584 
Q 3463 3584 3878 3070 
Q 4294 2556 4294 1747 
Q 4294 938 3878 423 
Q 3463 -91 2816 -91 
Q 2450 -91 2169 54 
Q 1888 200 1656 506 
L 1656 0 
L 538 0 
L 538 4863 
L 1656 4863 
L 1656 2988 
z
" transform="scale(0.015625)"/>
      <path id="DejaVuSans-Bold-69" d="M 538 3500 
L 1656 3500 
L 1656 0 
L 538 0 
L 538 3500 
z
M 538 4863 
L 1656 4863 
L 1656 3950 
L 538 3950 
L 538 4863 
z
" transform="scale(0.015625)"/>
      <path id="DejaVuSans-Bold-74" d="M 1759 4494 
L 1759 3500 
L 2913 3500 
L 2913 2700 
L 1759 2700 
L 1759 1216 
Q 1759 972 1856 886 
Q 1953 800 2241 800 
L 2816 800 
L 2816 0 
L 1856 0 
Q 1194 0 917 276 
Q 641 553 641 1216 
L 641 2700 
L 84 2700 
L 84 3500 
L 641 3500 
L 641 4494 
L 1759 4494 
z
" transform="scale(0.015625)"/>
      <path id="DejaVuSans-Bold-20" transform="scale(0.015625)"/>
      <path id="DejaVuSans-Bold-43" d="M 4288 256 
Q 3956 84 3597 -3 
Q 3238 -91 2847 -91 
Q 1681 -91 1000 561 
Q 319 1213 319 2328 
Q 319 3447 1000 4098 
Q 1681 4750 2847 4750 
Q 3238 4750 3597 4662 
Q 3956 4575 4288 4403 
L 4288 3438 
Q 3953 3666 3628 3772 
Q 3303 3878 2944 3878 
Q 2300 3878 1931 3465 
Q 1563 3053 1563 2328 
Q 1563 1606 1931 1193 
Q 2300 781 2944 781 
Q 3303 781 3628 887 
Q 3953 994 4288 1222 
L 4288 256 
z
" transform="scale(0.015625)"/>
      <path id="DejaVuSans-Bold-6f" d="M 2203 2784 
Q 1831 2784 1636 2517 
Q 1441 2250 1441 1747 
Q 1441 1244 1636 976 
Q 1831 709 2203 709 
Q 2569 709 2762 976 
Q 2956 1244 2956 1747 
Q 2956 2250 2762 2517 
Q 2569 2784 2203 2784 
z
M 2203 3584 
Q 3106 3584 3614 3096 
Q 4122 2609 4122 1747 
Q 4122 884 3614 396 
Q 3106 -91 2203 -91 
Q 1297 -91 786 396 
Q 275 884 275 1747 
Q 275 2609 786 3096 
Q 1297 3584 2203 3584 
z
" transform="scale(0.015625)"/>
      <path id="DejaVuSans-Bold-6d" d="M 3781 2919 
Q 3994 3244 4286 3414 
Q 4578 3584 4928 3584 
Q 5531 3584 5847 3212 
Q 6163 2841 6163 2131 
L 6163 0 
L 5038 0 
L 5038 1825 
Q 5041 1866 5042 1909 
Q 5044 1953 5044 2034 
Q 5044 2406 4934 2573 
Q 4825 2741 4581 2741 
Q 4263 2741 4089 2478 
Q 3916 2216 3909 1719 
L 3909 0 
L 2784 0 
L 2784 1825 
Q 2784 2406 2684 2573 
Q 2584 2741 2328 2741 
Q 2006 2741 1831 2477 
Q 1656 2213 1656 1722 
L 1656 0 
L 531 0 
L 531 3500 
L 1656 3500 
L 1656 2988 
Q 1863 3284 2130 3434 
Q 2397 3584 2719 3584 
Q 3081 3584 3359 3409 
Q 3638 3234 3781 2919 
z
" transform="scale(0.015625)"/>
      <path id="DejaVuSans-Bold-6e" d="M 4056 2131 
L 4056 0 
L 2931 0 
L 2931 347 
L 2931 1631 
Q 2931 2084 2911 2256 
Q 2891 2428 2841 2509 
Q 2775 2619 2662 2680 
Q 2550 2741 2406 2741 
Q 2056 2741 1856 2470 
Q 1656 2200 1656 1722 
L 1656 0 
L 538 0 
L 538 3500 
L 1656 3500 
L 1656 2988 
Q 1909 3294 2193 3439 
Q 2478 3584 2822 3584 
Q 3428 3584 3742 3212 
Q 4056 2841 4056 2131 
z
" transform="scale(0.015625)"/>
      <path id="DejaVuSans-Bold-61" d="M 2106 1575 
Q 1756 1575 1579 1456 
Q 1403 1338 1403 1106 
Q 1403 894 1545 773 
Q 1688 653 1941 653 
Q 2256 653 2472 879 
Q 2688 1106 2688 1447 
L 2688 1575 
L 2106 1575 
z
M 3816 1997 
L 3816 0 
L 2688 0 
L 2688 519 
Q 2463 200 2181 54 
Q 1900 -91 1497 -91 
Q 953 -91 614 226 
Q 275 544 275 1050 
Q 275 1666 698 1953 
Q 1122 2241 2028 2241 
L 2688 2241 
L 2688 2328 
Q 2688 2594 2478 2717 
Q 2269 2841 1825 2841 
Q 1466 2841 1156 2769 
Q 847 2697 581 2553 
L 581 3406 
Q 941 3494 1303 3539 
Q 1666 3584 2028 3584 
Q 2975 3584 3395 3211 
Q 3816 2838 3816 1997 
z
" transform="scale(0.015625)"/>
      <path id="DejaVuSans-Bold-4c" d="M 588 4666 
L 1791 4666 
L 1791 909 
L 3903 909 
L 3903 0 
L 588 0 
L 588 4666 
z
" transform="scale(0.015625)"/>
      <path id="DejaVuSans-Bold-63" d="M 3366 3391 
L 3366 2478 
Q 3138 2634 2908 2709 
Q 2678 2784 2431 2784 
Q 1963 2784 1702 2511 
Q 1441 2238 1441 1747 
Q 1441 1256 1702 982 
Q 1963 709 2431 709 
Q 2694 709 2930 787 
Q 3166 866 3366 1019 
L 3366 103 
Q 3103 6 2833 -42 
Q 2563 -91 2291 -91 
Q 1344 -91 809 395 
Q 275 881 275 1747 
Q 275 2613 809 3098 
Q 1344 3584 2291 3584 
Q 2566 3584 2833 3536 
Q 3100 3488 3366 3391 
z
" transform="scale(0.015625)"/>
      <path id="DejaVuSans-Bold-6b" d="M 538 4863 
L 1656 4863 
L 1656 2216 
L 2944 3500 
L 4244 3500 
L 2534 1894 
L 4378 0 
L 3022 0 
L 1656 1459 
L 1656 0 
L 538 0 
L 538 4863 
z
" transform="scale(0.015625)"/>
      <path id="DejaVuSans-Bold-41" d="M 3419 850 
L 1538 850 
L 1241 0 
L 31 0 
L 1759 4666 
L 3194 4666 
L 4922 0 
L 3713 0 
L 3419 850 
z
M 1838 1716 
L 3116 1716 
L 2478 3572 
L 1838 1716 
z
" transform="scale(0.015625)"/>
      <path id="DejaVuSans-Bold-53" d="M 3834 4519 
L 3834 3531 
Q 3450 3703 3084 3790 
Q 2719 3878 2394 3878 
Q 1963 3878 1756 3759 
Q 1550 3641 1550 3391 
Q 1550 3203 1689 3098 
Q 1828 2994 2194 2919 
L 2706 2816 
Q 3484 2659 3812 2340 
Q 4141 2022 4141 1434 
Q 4141 663 3683 286 
Q 3225 -91 2284 -91 
Q 1841 -91 1394 -6 
Q 947 78 500 244 
L 500 1259 
Q 947 1022 1364 901 
Q 1781 781 2169 781 
Q 2563 781 2772 912 
Q 2981 1044 2981 1288 
Q 2981 1506 2839 1625 
Q 2697 1744 2272 1838 
L 1806 1941 
Q 1106 2091 782 2419 
Q 459 2747 459 3303 
Q 459 4000 909 4375 
Q 1359 4750 2203 4750 
Q 2588 4750 2994 4692 
Q 3400 4634 3834 4519 
z
" transform="scale(0.015625)"/>
      <path id="DejaVuSans-Bold-49" d="M 588 4666 
L 1791 4666 
L 1791 0 
L 588 0 
L 588 4666 
z
" transform="scale(0.015625)"/>
      <path id="DejaVuSans-Bold-77" d="M 225 3500 
L 1313 3500 
L 1900 1088 
L 2491 3500 
L 3425 3500 
L 4013 1113 
L 4603 3500 
L 5691 3500 
L 4769 0 
L 3547 0 
L 2956 2406 
L 2369 0 
L 1147 0 
L 225 3500 
z
" transform="scale(0.015625)"/>
      <path id="DejaVuSans-Bold-68" d="M 4056 2131 
L 4056 0 
L 2931 0 
L 2931 347 
L 2931 1625 
Q 2931 2084 2911 2256 
Q 2891 2428 2841 2509 
Q 2775 2619 2662 2680 
Q 2550 2741 2406 2741 
Q 2056 2741 1856 2470 
Q 1656 2200 1656 1722 
L 1656 0 
L 538 0 
L 538 4863 
L 1656 4863 
L 1656 2988 
Q 1909 3294 2193 3439 
Q 2478 3584 2822 3584 
Q 3428 3584 3742 3212 
Q 4056 2841 4056 2131 
z
" transform="scale(0.015625)"/>
      <path id="DejaVuSans-Bold-78" d="M 1422 1791 
L 159 3500 
L 1344 3500 
L 2059 2463 
L 2784 3500 
L 3969 3500 
L 2706 1797 
L 4031 0 
L 2847 0 
L 2059 1106 
L 1281 0 
L 97 0 
L 1422 1791 
z
" transform="scale(0.015625)"/>
      <path id="DejaVuSans-Bold-4d" d="M 588 4666 
L 2119 4666 
L 3181 2169 
L 4250 4666 
L 5778 4666 
L 5778 0 
L 4641 0 
L 4641 3413 
L 3566 897 
L 2803 897 
L 1728 3413 
L 1728 0 
L 588 0 
L 588 4666 
z
" transform="scale(0.015625)"/>
      <path id="DejaVuSans-Bold-72" d="M 3138 2547 
Q 2991 2616 2845 2648 
Q 2700 2681 2553 2681 
Q 2122 2681 1889 2404 
Q 1656 2128 1656 1613 
L 1656 0 
L 538 0 
L 538 3500 
L 1656 3500 
L 1656 2925 
Q 1872 3269 2151 3426 
Q 2431 3584 2822 3584 
Q 2878 3584 2943 3579 
Q 3009 3575 3134 3559 
L 3138 2547 
z
" transform="scale(0.015625)"/>
      <path id="DejaVuSans-Bold-4b" d="M 588 4666 
L 1791 4666 
L 1791 2963 
L 3525 4666 
L 4922 4666 
L 2675 2456 
L 5153 0 
L 3647 0 
L 1791 1838 
L 1791 0 
L 588 0 
L 588 4666 
z
" transform="scale(0.015625)"/>
      <path id="DejaVuSans-Bold-65" d="M 4031 1759 
L 4031 1441 
L 1416 1441 
Q 1456 1047 1700 850 
Q 1944 653 2381 653 
Q 2734 653 3104 758 
Q 3475 863 3866 1075 
L 3866 213 
Q 3469 63 3072 -14 
Q 2675 -91 2278 -91 
Q 1328 -91 801 392 
Q 275 875 275 1747 
Q 275 2603 792 3093 
Q 1309 3584 2216 3584 
Q 3041 3584 3536 3087 
Q 4031 2591 4031 1759 
z
M 2881 2131 
Q 2881 2450 2695 2645 
Q 2509 2841 2209 2841 
Q 1884 2841 1681 2658 
Q 1478 2475 1428 2131 
L 2881 2131 
z
" transform="scale(0.015625)"/>
      <path id="DejaVuSans-Bold-79" d="M 78 3500 
L 1197 3500 
L 2138 1125 
L 2938 3500 
L 4056 3500 
L 2584 -331 
Q 2363 -916 2067 -1148 
Q 1772 -1381 1288 -1381 
L 641 -1381 
L 641 -647 
L 991 -647 
Q 1275 -647 1404 -556 
Q 1534 -466 1606 -231 
L 1638 -134 
L 78 3500 
z
" transform="scale(0.015625)"/>
      <path id="DejaVuSans-Bold-70" d="M 1656 506 
L 1656 -1331 
L 538 -1331 
L 538 3500 
L 1656 3500 
L 1656 2988 
Q 1888 3294 2169 3439 
Q 2450 3584 2816 3584 
Q 3463 3584 3878 3070 
Q 4294 2556 4294 1747 
Q 4294 938 3878 423 
Q 3463 -91 2816 -91 
Q 2450 -91 2169 54 
Q 1888 200 1656 506 
z
M 2400 2772 
Q 2041 2772 1848 2508 
Q 1656 2244 1656 1747 
Q 1656 1250 1848 986 
Q 2041 722 2400 722 
Q 2759 722 2948 984 
Q 3138 1247 3138 1747 
Q 3138 2247 2948 2509 
Q 2759 2772 2400 2772 
z
" transform="scale(0.015625)"/>
      <path id="DejaVuSans-Bold-64" d="M 2919 2988 
L 2919 4863 
L 4044 4863 
L 4044 0 
L 2919 0 
L 2919 506 
Q 2688 197 2409 53 
Q 2131 -91 1766 -91 
Q 1119 -91 703 423 
Q 288 938 288 1747 
Q 288 2556 703 3070 
Q 1119 3584 1766 3584 
Q 2128 3584 2408 3439 
Q 2688 3294 2919 2988 
z
M 2181 722 
Q 2541 722 2730 984 
Q 2919 1247 2919 1747 
Q 2919 2247 2730 2509 
Q 2541 2772 2181 2772 
Q 1825 2772 1636 2509 
Q 1447 2247 1447 1747 
Q 1447 1247 1636 984 
Q 1825 722 2181 722 
z
" transform="scale(0.015625)"/>
     </defs>
     <use xlink:href="#DejaVuSans-Bold-34"/>
     <use xlink:href="#DejaVuSans-Bold-2d" transform="translate(69.580078 0)"/>
     <use xlink:href="#DejaVuSans-Bold-62" transform="translate(111.083984 0)"/>
     <use xlink:href="#DejaVuSans-Bold-69" transform="translate(182.666016 0)"/>
     <use xlink:href="#DejaVuSans-Bold-74" transform="translate(216.943359 0)"/>
     <use xlink:href="#DejaVuSans-Bold-20" transform="translate(264.746094 0)"/>
     <use xlink:href="#DejaVuSans-Bold-43" transform="translate(299.560547 0)"/>
     <use xlink:href="#DejaVuSans-Bold-6f" transform="translate(372.949219 0)"/>
     <use xlink:href="#DejaVuSans-Bold-6d" transform="translate(441.650391 0)"/>
     <use xlink:href="#DejaVuSans-Bold-62" transform="translate(545.849609 0)"/>
     <use xlink:href="#DejaVuSans-Bold-69" transform="translate(617.431641 0)"/>
     <use xlink:href="#DejaVuSans-Bold-6e" transform="translate(651.708984 0)"/>
     <use xlink:href="#DejaVuSans-Bold-61" transform="translate(722.900391 0)"/>
     <use xlink:href="#DejaVuSans-Bold-74" transform="translate(790.380859 0)"/>
     <use xlink:href="#DejaVuSans-Bold-69" transform="translate(838.183594 0)"/>
     <use xlink:href="#DejaVuSans-Bold-6f" transform="translate(872.460938 0)"/>
     <use xlink:href="#DejaVuSans-Bold-6e" transform="translate(941.162109 0)"/>
     <use xlink:href="#DejaVuSans-Bold-20" transform="translate(1012.353516 0)"/>
     <use xlink:href="#DejaVuSans-Bold-4c" transform="translate(1047.167969 0)"/>
     <use xlink:href="#DejaVuSans-Bold-6f" transform="translate(1110.888672 0)"/>
     <use xlink:href="#DejaVuSans-Bold-63" transform="translate(1179.589844 0)"/>
     <use xlink:href="#DejaVuSans-Bold-6b" transform="translate(1238.867188 0)"/>
     <use xlink:href="#DejaVuSans-Bold-20" transform="translate(1305.371094 0)"/>
     <use xlink:href="#DejaVuSans-Bold-41" transform="translate(1340.185547 0)"/>
     <use xlink:href="#DejaVuSans-Bold-53" transform="translate(1417.578125 0)"/>
     <use xlink:href="#DejaVuSans-Bold-49" transform="translate(1489.599609 0)"/>
     <use xlink:href="#DejaVuSans-Bold-43" transform="translate(1526.806641 0)"/>
     <use xlink:href="#DejaVuSans-Bold-20" transform="translate(1600.195312 0)"/>
     <use xlink:href="#DejaVuSans-Bold-77" transform="translate(1635.009766 0)"/>
     <use xlink:href="#DejaVuSans-Bold-69" transform="translate(1727.392578 0)"/>
     <use xlink:href="#DejaVuSans-Bold-74" transform="translate(1761.669922 0)"/>
     <use xlink:href="#DejaVuSans-Bold-68" transform="translate(1809.472656 0)"/>
     <use xlink:href="#DejaVuSans-Bold-20" transform="translate(1880.664062 0)"/>
     <use xlink:href="#DejaVuSans-Bold-34" transform="translate(1915.478516 0)"/>
     <use xlink:href="#DejaVuSans-Bold-78" transform="translate(1985.058594 0)"/>
     <use xlink:href="#DejaVuSans-Bold-34" transform="translate(2049.560547 0)"/>
     <use xlink:href="#DejaVuSans-Bold-20" transform="translate(2119.140625 0)"/>
     <use xlink:href="#DejaVuSans-Bold-4d" transform="translate(2153.955078 0)"/>
     <use xlink:href="#DejaVuSans-Bold-61" transform="translate(2253.466797 0)"/>
     <use xlink:href="#DejaVuSans-Bold-74" transform="translate(2320.947266 0)"/>
     <use xlink:href="#DejaVuSans-Bold-72" transform="translate(2368.75 0)"/>
     <use xlink:href="#DejaVuSans-Bold-69" transform="translate(2418.066406 0)"/>
     <use xlink:href="#DejaVuSans-Bold-78" transform="translate(2452.34375 0)"/>
     <use xlink:href="#DejaVuSans-Bold-20" transform="translate(2516.845703 0)"/>
     <use xlink:href="#DejaVuSans-Bold-4b" transform="translate(2551.660156 0)"/>
     <use xlink:href="#DejaVuSans-Bold-65" transform="translate(2627.400391 0)"/>
     <use xlink:href="#DejaVuSans-Bold-79" transform="translate(2695.222656 0)"/>
     <use xlink:href="#DejaVuSans-Bold-70" transform="translate(2760.408203 0)"/>
     <use xlink:href="#DejaVuSans-Bold-61" transform="translate(2831.990234 0)"/>
     <use xlink:href="#DejaVuSans-Bold-64" transform="translate(2899.470703 0)"/>
    </g>
   </g>
   <g id="text_2">
    <!-- 4x4 Matrix -->
    <g style="fill: #1f2933" transform="translate(99.49125 319.37655) scale(0.16 -0.16)">
     <use xlink:href="#DejaVuSans-Bold-34"/>
     <use xlink:href="#DejaVuSans-Bold-78" transform="translate(69.580078 0)"/>
     <use xlink:href="#DejaVuSans-Bold-34" transform="translate(134.082031 0)"/>
     <use xlink:href="#DejaVuSans-Bold-20" transform="translate(203.662109 0)"/>
     <use xlink:href="#DejaVuSans-Bold-4d" transform="translate(238.476562 0)"/>
     <use xlink:href="#DejaVuSans-Bold-61" transform="translate(337.988281 0)"/>
     <use xlink:href="#DejaVuSans-Bold-74" transform="translate(405.46875 0)"/>
     <use xlink:href="#DejaVuSans-Bold-72" transform="translate(453.271484 0)"/>
     <use xlink:href="#DejaVuSans-Bold-69" transform="translate(502.587891 0)"/>
     <use xlink:href="#DejaVuSans-Bold-78" transform="translate(536.865234 0)"/>
    </g>
    <!-- Keypad -->
    <g style="fill: #1f2933" transform="translate(114.04875 336.32045) scale(0.16 -0.16)">
     <use xlink:href="#DejaVuSans-Bold-4b"/>
     <use xlink:href="#DejaVuSans-Bold-65" transform="translate(75.740234 0)"/>
     <use xlink:href="#DejaVuSans-Bold-79" transform="translate(143.5625 0)"/>
     <use xlink:href="#DejaVuSans-Bold-70" transform="translate(208.748047 0)"/>
     <use xlink:href="#DejaVuSans-Bold-61" transform="translate(280.330078 0)"/>
     <use xlink:href="#DejaVuSans-Bold-64" transform="translate(347.810547 0)"/>
    </g>
   </g>
   <g id="text_3">
    <!-- Rows 0-3 -->
    <g style="fill: #334e68" transform="translate(122.566406 374.307559) scale(0.11 -0.11)">
     <defs>
      <path id="DejaVuSans-52" d="M 2841 2188 
Q 3044 2119 3236 1894 
Q 3428 1669 3622 1275 
L 4263 0 
L 3584 0 
L 2988 1197 
Q 2756 1666 2539 1819 
Q 2322 1972 1947 1972 
L 1259 1972 
L 1259 0 
L 628 0 
L 628 4666 
L 2053 4666 
Q 2853 4666 3247 4331 
Q 3641 3997 3641 3322 
Q 3641 2881 3436 2590 
Q 3231 2300 2841 2188 
z
M 1259 4147 
L 1259 2491 
L 2053 2491 
Q 2509 2491 2742 2702 
Q 2975 2913 2975 3322 
Q 2975 3731 2742 3939 
Q 2509 4147 2053 4147 
L 1259 4147 
z
" transform="scale(0.015625)"/>
      <path id="DejaVuSans-6f" d="M 1959 3097 
Q 1497 3097 1228 2736 
Q 959 2375 959 1747 
Q 959 1119 1226 758 
Q 1494 397 1959 397 
Q 2419 397 2687 759 
Q 2956 1122 2956 1747 
Q 2956 2369 2687 2733 
Q 2419 3097 1959 3097 
z
M 1959 3584 
Q 2709 3584 3137 3096 
Q 3566 2609 3566 1747 
Q 3566 888 3137 398 
Q 2709 -91 1959 -91 
Q 1206 -91 779 398 
Q 353 888 353 1747 
Q 353 2609 779 3096 
Q 1206 3584 1959 3584 
z
" transform="scale(0.015625)"/>
      <path id="DejaVuSans-77" d="M 269 3500 
L 844 3500 
L 1563 769 
L 2278 3500 
L 2956 3500 
L 3675 769 
L 4391 3500 
L 4966 3500 
L 4050 0 
L 3372 0 
L 2619 2869 
L 1863 0 
L 1184 0 
L 269 3500 
z
" transform="scale(0.015625)"/>
      <path id="DejaVuSans-73" d="M 2834 3397 
L 2834 2853 
Q 2591 2978 2328 3040 
Q 2066 3103 1784 3103 
Q 1356 3103 1142 2972 
Q 928 2841 928 2578 
Q 928 2378 1081 2264 
Q 1234 2150 1697 2047 
L 1894 2003 
Q 2506 1872 2764 1633 
Q 3022 1394 3022 966 
Q 3022 478 2636 193 
Q 2250 -91 1575 -91 
Q 1294 -91 989 -36 
Q 684 19 347 128 
L 347 722 
Q 666 556 975 473 
Q 1284 391 1588 391 
Q 1994 391 2212 530 
Q 2431 669 2431 922 
Q 2431 1156 2273 1281 
Q 2116 1406 1581 1522 
L 1381 1569 
Q 847 1681 609 1914 
Q 372 2147 372 2553 
Q 372 3047 722 3315 
Q 1072 3584 1716 3584 
Q 2034 3584 2315 3537 
Q 2597 3491 2834 3397 
z
" transform="scale(0.015625)"/>
      <path id="DejaVuSans-20" transform="scale(0.015625)"/>
      <path id="DejaVuSans-30" d="M 2034 4250 
Q 1547 4250 1301 3770 
Q 1056 3291 1056 2328 
Q 1056 1369 1301 889 
Q 1547 409 2034 409 
Q 2525 409 2770 889 
Q 3016 1369 3016 2328 
Q 3016 3291 2770 3770 
Q 2525 4250 2034 4250 
z
M 2034 4750 
Q 2819 4750 3233 4129 
Q 3647 3509 3647 2328 
Q 3647 1150 3233 529 
Q 2819 -91 2034 -91 
Q 1250 -91 836 529 
Q 422 1150 422 2328 
Q 422 3509 836 4129 
Q 1250 4750 2034 4750 
z
" transform="scale(0.015625)"/>
      <path id="DejaVuSans-2d" d="M 313 2009 
L 1997 2009 
L 1997 1497 
L 313 1497 
L 313 2009 
z
" transform="scale(0.015625)"/>
      <path id="DejaVuSans-33" d="M 2597 2516 
Q 3050 2419 3304 2112 
Q 3559 1806 3559 1356 
Q 3559 666 3084 287 
Q 2609 -91 1734 -91 
Q 1441 -91 1130 -33 
Q 819 25 488 141 
L 488 750 
Q 750 597 1062 519 
Q 1375 441 1716 441 
Q 2309 441 2620 675 
Q 2931 909 2931 1356 
Q 2931 1769 2642 2001 
Q 2353 2234 1838 2234 
L 1294 2234 
L 1294 2753 
L 1863 2753 
Q 2328 2753 2575 2939 
Q 2822 3125 2822 3475 
Q 2822 3834 2567 4026 
Q 2313 4219 1838 4219 
Q 1578 4219 1281 4162 
Q 984 4106 628 3988 
L 628 4550 
Q 988 4650 1302 4700 
Q 1616 4750 1894 4750 
Q 2613 4750 3031 4423 
Q 3450 4097 3450 3541 
Q 3450 3153 3228 2886 
Q 3006 2619 2597 2516 
z
" transform="scale(0.015625)"/>
     </defs>
     <use xlink:href="#DejaVuSans-52"/>
     <use xlink:href="#DejaVuSans-6f" transform="translate(64.982422 0)"/>
     <use xlink:href="#DejaVuSans-77" transform="translate(126.164062 0)"/>
     <use xlink:href="#DejaVuSans-73" transform="translate(207.951172 0)"/>
     <use xlink:href="#DejaVuSans-20" transform="translate(260.050781 0)"/>
     <use xlink:href="#DejaVuSans-30" transform="translate(291.837891 0)"/>
     <use xlink:href="#DejaVuSans-2d" transform="translate(355.460938 0)"/>
     <use xlink:href="#DejaVuSans-33" transform="translate(391.544922 0)"/>
    </g>
    <!-- Columns 0-3 -->
    <g style="fill: #334e68" transform="translate(112.941406 387.043066) scale(0.11 -0.11)">
     <defs>
      <path id="DejaVuSans-43" d="M 4122 4306 
L 4122 3641 
Q 3803 3938 3442 4084 
Q 3081 4231 2675 4231 
Q 1875 4231 1450 3742 
Q 1025 3253 1025 2328 
Q 1025 1406 1450 917 
Q 1875 428 2675 428 
Q 3081 428 3442 575 
Q 3803 722 4122 1019 
L 4122 359 
Q 3791 134 3420 21 
Q 3050 -91 2638 -91 
Q 1578 -91 968 557 
Q 359 1206 359 2328 
Q 359 3453 968 4101 
Q 1578 4750 2638 4750 
Q 3056 4750 3426 4639 
Q 3797 4528 4122 4306 
z
" transform="scale(0.015625)"/>
      <path id="DejaVuSans-6c" d="M 603 4863 
L 1178 4863 
L 1178 0 
L 603 0 
L 603 4863 
z
" transform="scale(0.015625)"/>
      <path id="DejaVuSans-75" d="M 544 1381 
L 544 3500 
L 1119 3500 
L 1119 1403 
Q 1119 906 1312 657 
Q 1506 409 1894 409 
Q 2359 409 2629 706 
Q 2900 1003 2900 1516 
L 2900 3500 
L 3475 3500 
L 3475 0 
L 2900 0 
L 2900 538 
Q 2691 219 2414 64 
Q 2138 -91 1772 -91 
Q 1169 -91 856 284 
Q 544 659 544 1381 
z
M 1991 3584 
L 1991 3584 
z
" transform="scale(0.015625)"/>
      <path id="DejaVuSans-6d" d="M 3328 2828 
Q 3544 3216 3844 3400 
Q 4144 3584 4550 3584 
Q 5097 3584 5394 3201 
Q 5691 2819 5691 2113 
L 5691 0 
L 5113 0 
L 5113 2094 
Q 5113 2597 4934 2840 
Q 4756 3084 4391 3084 
Q 3944 3084 3684 2787 
Q 3425 2491 3425 1978 
L 3425 0 
L 2847 0 
L 2847 2094 
Q 2847 2600 2669 2842 
Q 2491 3084 2119 3084 
Q 1678 3084 1418 2786 
Q 1159 2488 1159 1978 
L 1159 0 
L 581 0 
L 581 3500 
L 1159 3500 
L 1159 2956 
Q 1356 3278 1631 3431 
Q 1906 3584 2284 3584 
Q 2666 3584 2933 3390 
Q 3200 3197 3328 2828 
z
" transform="scale(0.015625)"/>
      <path id="DejaVuSans-6e" d="M 3513 2113 
L 3513 0 
L 2938 0 
L 2938 2094 
Q 2938 2591 2744 2837 
Q 2550 3084 2163 3084 
Q 1697 3084 1428 2787 
Q 1159 2491 1159 1978 
L 1159 0 
L 581 0 
L 581 3500 
L 1159 3500 
L 1159 2956 
Q 1366 3272 1645 3428 
Q 1925 3584 2291 3584 
Q 2894 3584 3203 3211 
Q 3513 2838 3513 2113 
z
" transform="scale(0.015625)"/>
     </defs>
     <use xlink:href="#DejaVuSans-43"/>
     <use xlink:href="#DejaVuSans-6f" transform="translate(69.824219 0)"/>
     <use xlink:href="#DejaVuSans-6c" transform="translate(131.005859 0)"/>
     <use xlink:href="#DejaVuSans-75" transform="translate(158.789062 0)"/>
     <use xlink:href="#DejaVuSans-6d" transform="translate(222.167969 0)"/>
     <use xlink:href="#DejaVuSans-6e" transform="translate(319.580078 0)"/>
     <use xlink:href="#DejaVuSans-73" transform="translate(382.958984 0)"/>
     <use xlink:href="#DejaVuSans-20" transform="translate(435.058594 0)"/>
     <use xlink:href="#DejaVuSans-30" transform="translate(466.845703 0)"/>
     <use xlink:href="#DejaVuSans-2d" transform="translate(530.46875 0)"/>
     <use xlink:href="#DejaVuSans-33" transform="translate(566.552734 0)"/>
    </g>
   </g>
   <g id="text_4">
    <!-- TinyTapeout-style -->
    <g style="fill: #1f2933" transform="translate(339.0075 312.96855) scale(0.16 -0.16)">
     <defs>
      <path id="DejaVuSans-Bold-54" d="M 31 4666 
L 4331 4666 
L 4331 3756 
L 2784 3756 
L 2784 0 
L 1581 0 
L 1581 3756 
L 31 3756 
L 31 4666 
z
" transform="scale(0.015625)"/>
      <path id="DejaVuSans-Bold-75" d="M 500 1363 
L 500 3500 
L 1625 3500 
L 1625 3150 
Q 1625 2866 1622 2436 
Q 1619 2006 1619 1863 
Q 1619 1441 1641 1255 
Q 1663 1069 1716 984 
Q 1784 875 1895 815 
Q 2006 756 2150 756 
Q 2500 756 2700 1025 
Q 2900 1294 2900 1772 
L 2900 3500 
L 4019 3500 
L 4019 0 
L 2900 0 
L 2900 506 
Q 2647 200 2364 54 
Q 2081 -91 1741 -91 
Q 1134 -91 817 281 
Q 500 653 500 1363 
z
" transform="scale(0.015625)"/>
      <path id="DejaVuSans-Bold-73" d="M 3272 3391 
L 3272 2541 
Q 2913 2691 2578 2766 
Q 2244 2841 1947 2841 
Q 1628 2841 1473 2761 
Q 1319 2681 1319 2516 
Q 1319 2381 1436 2309 
Q 1553 2238 1856 2203 
L 2053 2175 
Q 2913 2066 3209 1816 
Q 3506 1566 3506 1031 
Q 3506 472 3093 190 
Q 2681 -91 1863 -91 
Q 1516 -91 1145 -36 
Q 775 19 384 128 
L 384 978 
Q 719 816 1070 734 
Q 1422 653 1784 653 
Q 2113 653 2278 743 
Q 2444 834 2444 1013 
Q 2444 1163 2330 1236 
Q 2216 1309 1875 1350 
L 1678 1375 
Q 931 1469 631 1722 
Q 331 1975 331 2491 
Q 331 3047 712 3315 
Q 1094 3584 1881 3584 
Q 2191 3584 2531 3537 
Q 2872 3491 3272 3391 
z
" transform="scale(0.015625)"/>
      <path id="DejaVuSans-Bold-6c" d="M 538 4863 
L 1656 4863 
L 1656 0 
L 538 0 
L 538 4863 
z
" transform="scale(0.015625)"/>
     </defs>
     <use xlink:href="#DejaVuSans-Bold-54"/>
     <use xlink:href="#DejaVuSans-Bold-69" transform="translate(68.212891 0)"/>
     <use xlink:href="#DejaVuSans-Bold-6e" transform="translate(102.490234 0)"/>
     <use xlink:href="#DejaVuSans-Bold-79" transform="translate(173.681641 0)"/>
     <use xlink:href="#DejaVuSans-Bold-54" transform="translate(238.867188 0)"/>
     <use xlink:href="#DejaVuSans-Bold-61" transform="translate(294.205078 0)"/>
     <use xlink:href="#DejaVuSans-Bold-70" transform="translate(361.685547 0)"/>
     <use xlink:href="#DejaVuSans-Bold-65" transform="translate(433.267578 0)"/>
     <use xlink:href="#DejaVuSans-Bold-6f" transform="translate(501.089844 0)"/>
     <use xlink:href="#DejaVuSans-Bold-75" transform="translate(569.791016 0)"/>
     <use xlink:href="#DejaVuSans-Bold-74" transform="translate(640.982422 0)"/>
     <use xlink:href="#DejaVuSans-Bold-2d" transform="translate(688.785156 0)"/>
     <use xlink:href="#DejaVuSans-Bold-73" transform="translate(730.289062 0)"/>
     <use xlink:href="#DejaVuSans-Bold-74" transform="translate(789.810547 0)"/>
     <use xlink:href="#DejaVuSans-Bold-79" transform="translate(837.613281 0)"/>
     <use xlink:href="#DejaVuSans-Bold-6c" transform="translate(902.798828 0)"/>
     <use xlink:href="#DejaVuSans-Bold-65" transform="translate(937.076172 0)"/>
    </g>
    <!-- I/O Interface -->
    <g style="fill: #1f2933" transform="translate(363.00125 330.03745) scale(0.16 -0.16)">
     <defs>
      <path id="DejaVuSans-Bold-2f" d="M 1644 4666 
L 2338 4666 
L 691 -594 
L 0 -594 
L 1644 4666 
z
" transform="scale(0.015625)"/>
      <path id="DejaVuSans-Bold-4f" d="M 2719 3878 
Q 2169 3878 1866 3472 
Q 1563 3066 1563 2328 
Q 1563 1594 1866 1187 
Q 2169 781 2719 781 
Q 3272 781 3575 1187 
Q 3878 1594 3878 2328 
Q 3878 3066 3575 3472 
Q 3272 3878 2719 3878 
z
M 2719 4750 
Q 3844 4750 4481 4106 
Q 5119 3463 5119 2328 
Q 5119 1197 4481 553 
Q 3844 -91 2719 -91 
Q 1597 -91 958 553 
Q 319 1197 319 2328 
Q 319 3463 958 4106 
Q 1597 4750 2719 4750 
z
" transform="scale(0.015625)"/>
      <path id="DejaVuSans-Bold-66" d="M 2841 4863 
L 2841 4128 
L 2222 4128 
Q 1984 4128 1890 4042 
Q 1797 3956 1797 3744 
L 1797 3500 
L 2753 3500 
L 2753 2700 
L 1797 2700 
L 1797 0 
L 678 0 
L 678 2700 
L 122 2700 
L 122 3500 
L 678 3500 
L 678 3744 
Q 678 4316 997 4589 
Q 1316 4863 1984 4863 
L 2841 4863 
z
" transform="scale(0.015625)"/>
     </defs>
     <use xlink:href="#DejaVuSans-Bold-49"/>
     <use xlink:href="#DejaVuSans-Bold-2f" transform="translate(37.207031 0)"/>
     <use xlink:href="#DejaVuSans-Bold-4f" transform="translate(73.730469 0)"/>
     <use xlink:href="#DejaVuSans-Bold-20" transform="translate(158.740234 0)"/>
     <use xlink:href="#DejaVuSans-Bold-49" transform="translate(193.554688 0)"/>
     <use xlink:href="#DejaVuSans-Bold-6e" transform="translate(230.761719 0)"/>
     <use xlink:href="#DejaVuSans-Bold-74" transform="translate(301.953125 0)"/>
     <use xlink:href="#DejaVuSans-Bold-65" transform="translate(349.755859 0)"/>
     <use xlink:href="#DejaVuSans-Bold-72" transform="translate(417.578125 0)"/>
     <use xlink:href="#DejaVuSans-Bold-66" transform="translate(466.894531 0)"/>
     <use xlink:href="#DejaVuSans-Bold-61" transform="translate(510.400391 0)"/>
     <use xlink:href="#DejaVuSans-Bold-63" transform="translate(577.880859 0)"/>
     <use xlink:href="#DejaVuSans-Bold-65" transform="translate(637.158203 0)"/>
    </g>
   </g>
   <g id="text_5">
    <!-- Bidirectional uio bus -->
    <g style="fill: #334e68" transform="translate(363.3825 389.787559) scale(0.11 -0.11)">
     <defs>
      <path id="DejaVuSans-42" d="M 1259 2228 
L 1259 519 
L 2272 519 
Q 2781 519 3026 730 
Q 3272 941 3272 1375 
Q 3272 1813 3026 2020 
Q 2781 2228 2272 2228 
L 1259 2228 
z
M 1259 4147 
L 1259 2741 
L 2194 2741 
Q 2656 2741 2882 2914 
Q 3109 3088 3109 3444 
Q 3109 3797 2882 3972 
Q 2656 4147 2194 4147 
L 1259 4147 
z
M 628 4666 
L 2241 4666 
Q 2963 4666 3353 4366 
Q 3744 4066 3744 3513 
Q 3744 3084 3544 2831 
Q 3344 2578 2956 2516 
Q 3422 2416 3680 2098 
Q 3938 1781 3938 1306 
Q 3938 681 3513 340 
Q 3088 0 2303 0 
L 628 0 
L 628 4666 
z
" transform="scale(0.015625)"/>
      <path id="DejaVuSans-69" d="M 603 3500 
L 1178 3500 
L 1178 0 
L 603 0 
L 603 3500 
z
M 603 4863 
L 1178 4863 
L 1178 4134 
L 603 4134 
L 603 4863 
z
" transform="scale(0.015625)"/>
      <path id="DejaVuSans-64" d="M 2906 2969 
L 2906 4863 
L 3481 4863 
L 3481 0 
L 2906 0 
L 2906 525 
Q 2725 213 2448 61 
Q 2172 -91 1784 -91 
Q 1150 -91 751 415 
Q 353 922 353 1747 
Q 353 2572 751 3078 
Q 1150 3584 1784 3584 
Q 2172 3584 2448 3432 
Q 2725 3281 2906 2969 
z
M 947 1747 
Q 947 1113 1208 752 
Q 1469 391 1925 391 
Q 2381 391 2643 752 
Q 2906 1113 2906 1747 
Q 2906 2381 2643 2742 
Q 2381 3103 1925 3103 
Q 1469 3103 1208 2742 
Q 947 2381 947 1747 
z
" transform="scale(0.015625)"/>
      <path id="DejaVuSans-72" d="M 2631 2963 
Q 2534 3019 2420 3045 
Q 2306 3072 2169 3072 
Q 1681 3072 1420 2755 
Q 1159 2438 1159 1844 
L 1159 0 
L 581 0 
L 581 3500 
L 1159 3500 
L 1159 2956 
Q 1341 3275 1631 3429 
Q 1922 3584 2338 3584 
Q 2397 3584 2469 3576 
Q 2541 3569 2628 3553 
L 2631 2963 
z
" transform="scale(0.015625)"/>
      <path id="DejaVuSans-65" d="M 3597 1894 
L 3597 1613 
L 953 1613 
Q 991 1019 1311 708 
Q 1631 397 2203 397 
Q 2534 397 2845 478 
Q 3156 559 3463 722 
L 3463 178 
Q 3153 47 2828 -22 
Q 2503 -91 2169 -91 
Q 1331 -91 842 396 
Q 353 884 353 1716 
Q 353 2575 817 3079 
Q 1281 3584 2069 3584 
Q 2775 3584 3186 3129 
Q 3597 2675 3597 1894 
z
M 3022 2063 
Q 3016 2534 2758 2815 
Q 2500 3097 2075 3097 
Q 1594 3097 1305 2825 
Q 1016 2553 972 2059 
L 3022 2063 
z
" transform="scale(0.015625)"/>
      <path id="DejaVuSans-63" d="M 3122 3366 
L 3122 2828 
Q 2878 2963 2633 3030 
Q 2388 3097 2138 3097 
Q 1578 3097 1268 2742 
Q 959 2388 959 1747 
Q 959 1106 1268 751 
Q 1578 397 2138 397 
Q 2388 397 2633 464 
Q 2878 531 3122 666 
L 3122 134 
Q 2881 22 2623 -34 
Q 2366 -91 2075 -91 
Q 1284 -91 818 406 
Q 353 903 353 1747 
Q 353 2603 823 3093 
Q 1294 3584 2113 3584 
Q 2378 3584 2631 3529 
Q 2884 3475 3122 3366 
z
" transform="scale(0.015625)"/>
      <path id="DejaVuSans-74" d="M 1172 4494 
L 1172 3500 
L 2356 3500 
L 2356 3053 
L 1172 3053 
L 1172 1153 
Q 1172 725 1289 603 
Q 1406 481 1766 481 
L 2356 481 
L 2356 0 
L 1766 0 
Q 1100 0 847 248 
Q 594 497 594 1153 
L 594 3053 
L 172 3053 
L 172 3500 
L 594 3500 
L 594 4494 
L 1172 4494 
z
" transform="scale(0.015625)"/>
      <path id="DejaVuSans-61" d="M 2194 1759 
Q 1497 1759 1228 1600 
Q 959 1441 959 1056 
Q 959 750 1161 570 
Q 1363 391 1709 391 
Q 2188 391 2477 730 
Q 2766 1069 2766 1631 
L 2766 1759 
L 2194 1759 
z
M 3341 1997 
L 3341 0 
L 2766 0 
L 2766 531 
Q 2569 213 2275 61 
Q 1981 -91 1556 -91 
Q 1019 -91 701 211 
Q 384 513 384 1019 
Q 384 1609 779 1909 
Q 1175 2209 1959 2209 
L 2766 2209 
L 2766 2266 
Q 2766 2663 2505 2880 
Q 2244 3097 1772 3097 
Q 1472 3097 1187 3025 
Q 903 2953 641 2809 
L 641 3341 
Q 956 3463 1253 3523 
Q 1550 3584 1831 3584 
Q 2591 3584 2966 3190 
Q 3341 2797 3341 1997 
z
" transform="scale(0.015625)"/>
      <path id="DejaVuSans-62" d="M 3116 1747 
Q 3116 2381 2855 2742 
Q 2594 3103 2138 3103 
Q 1681 3103 1420 2742 
Q 1159 2381 1159 1747 
Q 1159 1113 1420 752 
Q 1681 391 2138 391 
Q 2594 391 2855 752 
Q 3116 1113 3116 1747 
z
M 1159 2969 
Q 1341 3281 1617 3432 
Q 1894 3584 2278 3584 
Q 2916 3584 3314 3078 
Q 3713 2572 3713 1747 
Q 3713 922 3314 415 
Q 2916 -91 2278 -91 
Q 1894 -91 1617 61 
Q 1341 213 1159 525 
L 1159 0 
L 581 0 
L 581 4863 
L 1159 4863 
L 1159 2969 
z
" transform="scale(0.015625)"/>
     </defs>
     <use xlink:href="#DejaVuSans-42"/>
     <use xlink:href="#DejaVuSans-69" transform="translate(68.603516 0)"/>
     <use xlink:href="#DejaVuSans-64" transform="translate(96.386719 0)"/>
     <use xlink:href="#DejaVuSans-69" transform="translate(159.863281 0)"/>
     <use xlink:href="#DejaVuSans-72" transform="translate(187.646484 0)"/>
     <use xlink:href="#DejaVuSans-65" transform="translate(226.509766 0)"/>
     <use xlink:href="#DejaVuSans-63" transform="translate(288.033203 0)"/>
     <use xlink:href="#DejaVuSans-74" transform="translate(343.013672 0)"/>
     <use xlink:href="#DejaVuSans-69" transform="translate(382.222656 0)"/>
     <use xlink:href="#DejaVuSans-6f" transform="translate(410.005859 0)"/>
     <use xlink:href="#DejaVuSans-6e" transform="translate(471.1875 0)"/>
     <use xlink:href="#DejaVuSans-61" transform="translate(534.566406 0)"/>
     <use xlink:href="#DejaVuSans-6c" transform="translate(595.845703 0)"/>
     <use xlink:href="#DejaVuSans-20" transform="translate(623.628906 0)"/>
     <use xlink:href="#DejaVuSans-75" transform="translate(655.416016 0)"/>
     <use xlink:href="#DejaVuSans-69" transform="translate(718.794922 0)"/>
     <use xlink:href="#DejaVuSans-6f" transform="translate(746.578125 0)"/>
     <use xlink:href="#DejaVuSans-20" transform="translate(807.759766 0)"/>
     <use xlink:href="#DejaVuSans-62" transform="translate(839.546875 0)"/>
     <use xlink:href="#DejaVuSans-75" transform="translate(903.023438 0)"/>
     <use xlink:href="#DejaVuSans-73" transform="translate(966.402344 0)"/>
    </g>
    <!-- Status output bus -->
    <g style="fill: #334e68" transform="translate(370.395859 402.523066) scale(0.11 -0.11)">
     <defs>
      <path id="DejaVuSans-53" d="M 3425 4513 
L 3425 3897 
Q 3066 4069 2747 4153 
Q 2428 4238 2131 4238 
Q 1616 4238 1336 4038 
Q 1056 3838 1056 3469 
Q 1056 3159 1242 3001 
Q 1428 2844 1947 2747 
L 2328 2669 
Q 3034 2534 3370 2195 
Q 3706 1856 3706 1288 
Q 3706 609 3251 259 
Q 2797 -91 1919 -91 
Q 1588 -91 1214 -16 
Q 841 59 441 206 
L 441 856 
Q 825 641 1194 531 
Q 1563 422 1919 422 
Q 2459 422 2753 634 
Q 3047 847 3047 1241 
Q 3047 1584 2836 1778 
Q 2625 1972 2144 2069 
L 1759 2144 
Q 1053 2284 737 2584 
Q 422 2884 422 3419 
Q 422 4038 858 4394 
Q 1294 4750 2059 4750 
Q 2388 4750 2728 4690 
Q 3069 4631 3425 4513 
z
" transform="scale(0.015625)"/>
      <path id="DejaVuSans-70" d="M 1159 525 
L 1159 -1331 
L 581 -1331 
L 581 3500 
L 1159 3500 
L 1159 2969 
Q 1341 3281 1617 3432 
Q 1894 3584 2278 3584 
Q 2916 3584 3314 3078 
Q 3713 2572 3713 1747 
Q 3713 922 3314 415 
Q 2916 -91 2278 -91 
Q 1894 -91 1617 61 
Q 1341 213 1159 525 
z
M 3116 1747 
Q 3116 2381 2855 2742 
Q 2594 3103 2138 3103 
Q 1681 3103 1420 2742 
Q 1159 2381 1159 1747 
Q 1159 1113 1420 752 
Q 1681 391 2138 391 
Q 2594 391 2855 752 
Q 3116 1113 3116 1747 
z
" transform="scale(0.015625)"/>
     </defs>
     <use xlink:href="#DejaVuSans-53"/>
     <use xlink:href="#DejaVuSans-74" transform="translate(63.476562 0)"/>
     <use xlink:href="#DejaVuSans-61" transform="translate(102.685547 0)"/>
     <use xlink:href="#DejaVuSans-74" transform="translate(163.964844 0)"/>
     <use xlink:href="#DejaVuSans-75" transform="translate(203.173828 0)"/>
     <use xlink:href="#DejaVuSans-73" transform="translate(266.552734 0)"/>
     <use xlink:href="#DejaVuSans-20" transform="translate(318.652344 0)"/>
     <use xlink:href="#DejaVuSans-6f" transform="translate(350.439453 0)"/>
     <use xlink:href="#DejaVuSans-75" transform="translate(411.621094 0)"/>
     <use xlink:href="#DejaVuSans-74" transform="translate(475 0)"/>
     <use xlink:href="#DejaVuSans-70" transform="translate(514.208984 0)"/>
     <use xlink:href="#DejaVuSans-75" transform="translate(577.685547 0)"/>
     <use xlink:href="#DejaVuSans-74" transform="translate(641.064453 0)"/>
     <use xlink:href="#DejaVuSans-20" transform="translate(680.273438 0)"/>
     <use xlink:href="#DejaVuSans-62" transform="translate(712.060547 0)"/>
     <use xlink:href="#DejaVuSans-75" transform="translate(775.537109 0)"/>
     <use xlink:href="#DejaVuSans-73" transform="translate(838.916016 0)"/>
    </g>
   </g>
   <g id="text_6">
    <!-- Keypad -->
    <g style="fill: #1f2933" transform="translate(650.745703 236.546016) scale(0.15 -0.15)">
     <use xlink:href="#DejaVuSans-Bold-4b"/>
     <use xlink:href="#DejaVuSans-Bold-65" transform="translate(75.740234 0)"/>
     <use xlink:href="#DejaVuSans-Bold-79" transform="translate(143.5625 0)"/>
     <use xlink:href="#DejaVuSans-Bold-70" transform="translate(208.748047 0)"/>
     <use xlink:href="#DejaVuSans-Bold-61" transform="translate(280.330078 0)"/>
     <use xlink:href="#DejaVuSans-Bold-64" transform="translate(347.810547 0)"/>
    </g>
    <!-- Scanner -->
    <g style="fill: #1f2933" transform="translate(647.827734 252.548109) scale(0.15 -0.15)">
     <use xlink:href="#DejaVuSans-Bold-53"/>
     <use xlink:href="#DejaVuSans-Bold-63" transform="translate(72.021484 0)"/>
     <use xlink:href="#DejaVuSans-Bold-61" transform="translate(131.298828 0)"/>
     <use xlink:href="#DejaVuSans-Bold-6e" transform="translate(198.779297 0)"/>
     <use xlink:href="#DejaVuSans-Bold-6e" transform="translate(269.970703 0)"/>
     <use xlink:href="#DejaVuSans-Bold-65" transform="translate(341.162109 0)"/>
     <use xlink:href="#DejaVuSans-Bold-72" transform="translate(408.984375 0)"/>
    </g>
   </g>
   <g id="text_7">
    <!-- Drive rows -->
    <g style="fill: #334e68" transform="translate(652.922812 272.787559) scale(0.11 -0.11)">
     <defs>
      <path id="DejaVuSans-44" d="M 1259 4147 
L 1259 519 
L 2022 519 
Q 2988 519 3436 956 
Q 3884 1394 3884 2338 
Q 3884 3275 3436 3711 
Q 2988 4147 2022 4147 
L 1259 4147 
z
M 628 4666 
L 1925 4666 
Q 3281 4666 3915 4102 
Q 4550 3538 4550 2338 
Q 4550 1131 3912 565 
Q 3275 0 1925 0 
L 628 0 
L 628 4666 
z
" transform="scale(0.015625)"/>
      <path id="DejaVuSans-76" d="M 191 3500 
L 800 3500 
L 1894 563 
L 2988 3500 
L 3597 3500 
L 2284 0 
L 1503 0 
L 191 3500 
z
" transform="scale(0.015625)"/>
     </defs>
     <use xlink:href="#DejaVuSans-44"/>
     <use xlink:href="#DejaVuSans-72" transform="translate(77.001953 0)"/>
     <use xlink:href="#DejaVuSans-69" transform="translate(118.115234 0)"/>
     <use xlink:href="#DejaVuSans-76" transform="translate(145.898438 0)"/>
     <use xlink:href="#DejaVuSans-65" transform="translate(205.078125 0)"/>
     <use xlink:href="#DejaVuSans-20" transform="translate(266.601562 0)"/>
     <use xlink:href="#DejaVuSans-72" transform="translate(298.388672 0)"/>
     <use xlink:href="#DejaVuSans-6f" transform="translate(337.251953 0)"/>
     <use xlink:href="#DejaVuSans-77" transform="translate(398.433594 0)"/>
     <use xlink:href="#DejaVuSans-73" transform="translate(480.220703 0)"/>
    </g>
    <!-- sample columns -->
    <g style="fill: #334e68" transform="translate(637.344062 285.523066) scale(0.11 -0.11)">
     <use xlink:href="#DejaVuSans-73"/>
     <use xlink:href="#DejaVuSans-61" transform="translate(52.099609 0)"/>
     <use xlink:href="#DejaVuSans-6d" transform="translate(113.378906 0)"/>
     <use xlink:href="#DejaVuSans-70" transform="translate(210.791016 0)"/>
     <use xlink:href="#DejaVuSans-6c" transform="translate(274.267578 0)"/>
     <use xlink:href="#DejaVuSans-65" transform="translate(302.050781 0)"/>
     <use xlink:href="#DejaVuSans-20" transform="translate(363.574219 0)"/>
     <use xlink:href="#DejaVuSans-63" transform="translate(395.361328 0)"/>
     <use xlink:href="#DejaVuSans-6f" transform="translate(450.341797 0)"/>
     <use xlink:href="#DejaVuSans-6c" transform="translate(511.523438 0)"/>
     <use xlink:href="#DejaVuSans-75" transform="translate(539.306641 0)"/>
     <use xlink:href="#DejaVuSans-6d" transform="translate(602.685547 0)"/>
     <use xlink:href="#DejaVuSans-6e" transform="translate(700.097656 0)"/>
     <use xlink:href="#DejaVuSans-73" transform="translate(763.476562 0)"/>
    </g>
   </g>
   <g id="text_8">
    <!-- Combination -->
    <g style="fill: #1f2933" transform="translate(889.740234 236.546016) scale(0.15 -0.15)">
     <use xlink:href="#DejaVuSans-Bold-43"/>
     <use xlink:href="#DejaVuSans-Bold-6f" transform="translate(73.388672 0)"/>
     <use xlink:href="#DejaVuSans-Bold-6d" transform="translate(142.089844 0)"/>
     <use xlink:href="#DejaVuSans-Bold-62" transform="translate(246.289062 0)"/>
     <use xlink:href="#DejaVuSans-Bold-69" transform="translate(317.871094 0)"/>
     <use xlink:href="#DejaVuSans-Bold-6e" transform="translate(352.148438 0)"/>
     <use xlink:href="#DejaVuSans-Bold-61" transform="translate(423.339844 0)"/>
     <use xlink:href="#DejaVuSans-Bold-74" transform="translate(490.820312 0)"/>
     <use xlink:href="#DejaVuSans-Bold-69" transform="translate(538.623047 0)"/>
     <use xlink:href="#DejaVuSans-Bold-6f" transform="translate(572.900391 0)"/>
     <use xlink:href="#DejaVuSans-Bold-6e" transform="translate(641.601562 0)"/>
    </g>
    <!-- Lock Logic -->
    <g style="fill: #1f2933" transform="translate(898.906641 252.430922) scale(0.15 -0.15)">
     <defs>
      <path id="DejaVuSans-Bold-67" d="M 2919 594 
Q 2688 288 2409 144 
Q 2131 0 1766 0 
Q 1125 0 706 504 
Q 288 1009 288 1791 
Q 288 2575 706 3076 
Q 1125 3578 1766 3578 
Q 2131 3578 2409 3434 
Q 2688 3291 2919 2981 
L 2919 3500 
L 4044 3500 
L 4044 353 
Q 4044 -491 3511 -936 
Q 2978 -1381 1966 -1381 
Q 1638 -1381 1331 -1331 
Q 1025 -1281 716 -1178 
L 716 -306 
Q 1009 -475 1290 -558 
Q 1572 -641 1856 -641 
Q 2406 -641 2662 -400 
Q 2919 -159 2919 353 
L 2919 594 
z
M 2181 2772 
Q 1834 2772 1640 2515 
Q 1447 2259 1447 1791 
Q 1447 1309 1634 1061 
Q 1822 813 2181 813 
Q 2531 813 2725 1069 
Q 2919 1325 2919 1791 
Q 2919 2259 2725 2515 
Q 2531 2772 2181 2772 
z
" transform="scale(0.015625)"/>
     </defs>
     <use xlink:href="#DejaVuSans-Bold-4c"/>
     <use xlink:href="#DejaVuSans-Bold-6f" transform="translate(63.720703 0)"/>
     <use xlink:href="#DejaVuSans-Bold-63" transform="translate(132.421875 0)"/>
     <use xlink:href="#DejaVuSans-Bold-6b" transform="translate(191.699219 0)"/>
     <use xlink:href="#DejaVuSans-Bold-20" transform="translate(258.203125 0)"/>
     <use xlink:href="#DejaVuSans-Bold-4c" transform="translate(293.017578 0)"/>
     <use xlink:href="#DejaVuSans-Bold-6f" transform="translate(356.738281 0)"/>
     <use xlink:href="#DejaVuSans-Bold-67" transform="translate(425.439453 0)"/>
     <use xlink:href="#DejaVuSans-Bold-69" transform="translate(497.021484 0)"/>
     <use xlink:href="#DejaVuSans-Bold-63" transform="translate(531.298828 0)"/>
    </g>
   </g>
   <g id="text_9">
    <!-- Password, attempt, -->
    <g style="fill: #334e68" transform="translate(890.194609 272.787559) scale(0.11 -0.11)">
     <defs>
      <path id="DejaVuSans-50" d="M 1259 4147 
L 1259 2394 
L 2053 2394 
Q 2494 2394 2734 2622 
Q 2975 2850 2975 3272 
Q 2975 3691 2734 3919 
Q 2494 4147 2053 4147 
L 1259 4147 
z
M 628 4666 
L 2053 4666 
Q 2838 4666 3239 4311 
Q 3641 3956 3641 3272 
Q 3641 2581 3239 2228 
Q 2838 1875 2053 1875 
L 1259 1875 
L 1259 0 
L 628 0 
L 628 4666 
z
" transform="scale(0.015625)"/>
      <path id="DejaVuSans-2c" d="M 750 794 
L 1409 794 
L 1409 256 
L 897 -744 
L 494 -744 
L 750 256 
L 750 794 
z
" transform="scale(0.015625)"/>
     </defs>
     <use xlink:href="#DejaVuSans-50"/>
     <use xlink:href="#DejaVuSans-61" transform="translate(55.802734 0)"/>
     <use xlink:href="#DejaVuSans-73" transform="translate(117.082031 0)"/>
     <use xlink:href="#DejaVuSans-73" transform="translate(169.181641 0)"/>
     <use xlink:href="#DejaVuSans-77" transform="translate(221.28125 0)"/>
     <use xlink:href="#DejaVuSans-6f" transform="translate(303.068359 0)"/>
     <use xlink:href="#DejaVuSans-72" transform="translate(364.25 0)"/>
     <use xlink:href="#DejaVuSans-64" transform="translate(403.613281 0)"/>
     <use xlink:href="#DejaVuSans-2c" transform="translate(467.089844 0)"/>
     <use xlink:href="#DejaVuSans-20" transform="translate(498.876953 0)"/>
     <use xlink:href="#DejaVuSans-61" transform="translate(530.664062 0)"/>
     <use xlink:href="#DejaVuSans-74" transform="translate(591.943359 0)"/>
     <use xlink:href="#DejaVuSans-74" transform="translate(631.152344 0)"/>
     <use xlink:href="#DejaVuSans-65" transform="translate(670.361328 0)"/>
     <use xlink:href="#DejaVuSans-6d" transform="translate(731.884766 0)"/>
     <use xlink:href="#DejaVuSans-70" transform="translate(829.296875 0)"/>
     <use xlink:href="#DejaVuSans-74" transform="translate(892.773438 0)"/>
     <use xlink:href="#DejaVuSans-2c" transform="translate(931.982422 0)"/>
    </g>
    <!-- and lockout state -->
    <g style="fill: #334e68" transform="translate(895.514141 285.523066) scale(0.11 -0.11)">
     <defs>
      <path id="DejaVuSans-6b" d="M 581 4863 
L 1159 4863 
L 1159 1991 
L 2875 3500 
L 3609 3500 
L 1753 1863 
L 3688 0 
L 2938 0 
L 1159 1709 
L 1159 0 
L 581 0 
L 581 4863 
z
" transform="scale(0.015625)"/>
     </defs>
     <use xlink:href="#DejaVuSans-61"/>
     <use xlink:href="#DejaVuSans-6e" transform="translate(61.279297 0)"/>
     <use xlink:href="#DejaVuSans-64" transform="translate(124.658203 0)"/>
     <use xlink:href="#DejaVuSans-20" transform="translate(188.134766 0)"/>
     <use xlink:href="#DejaVuSans-6c" transform="translate(219.921875 0)"/>
     <use xlink:href="#DejaVuSans-6f" transform="translate(247.705078 0)"/>
     <use xlink:href="#DejaVuSans-63" transform="translate(308.886719 0)"/>
     <use xlink:href="#DejaVuSans-6b" transform="translate(363.867188 0)"/>
     <use xlink:href="#DejaVuSans-6f" transform="translate(418.152344 0)"/>
     <use xlink:href="#DejaVuSans-75" transform="translate(479.333984 0)"/>
     <use xlink:href="#DejaVuSans-74" transform="translate(542.712891 0)"/>
     <use xlink:href="#DejaVuSans-20" transform="translate(581.921875 0)"/>
     <use xlink:href="#DejaVuSans-73" transform="translate(613.708984 0)"/>
     <use xlink:href="#DejaVuSans-74" transform="translate(665.808594 0)"/>
     <use xlink:href="#DejaVuSans-61" transform="translate(705.017578 0)"/>
     <use xlink:href="#DejaVuSans-74" transform="translate(766.296875 0)"/>
     <use xlink:href="#DejaVuSans-65" transform="translate(805.505859 0)"/>
    </g>
   </g>
   <g id="text_10">
    <!-- Output Status -->
    <g style="fill: #1f2933" transform="translate(883.562109 429.074016) scale(0.15 -0.15)">
     <use xlink:href="#DejaVuSans-Bold-4f"/>
     <use xlink:href="#DejaVuSans-Bold-75" transform="translate(85.009766 0)"/>
     <use xlink:href="#DejaVuSans-Bold-74" transform="translate(156.201172 0)"/>
     <use xlink:href="#DejaVuSans-Bold-70" transform="translate(204.003906 0)"/>
     <use xlink:href="#DejaVuSans-Bold-75" transform="translate(275.585938 0)"/>
     <use xlink:href="#DejaVuSans-Bold-74" transform="translate(346.777344 0)"/>
     <use xlink:href="#DejaVuSans-Bold-20" transform="translate(394.580078 0)"/>
     <use xlink:href="#DejaVuSans-Bold-53" transform="translate(429.394531 0)"/>
     <use xlink:href="#DejaVuSans-Bold-74" transform="translate(501.416016 0)"/>
     <use xlink:href="#DejaVuSans-Bold-61" transform="translate(549.21875 0)"/>
     <use xlink:href="#DejaVuSans-Bold-74" transform="translate(616.699219 0)"/>
     <use xlink:href="#DejaVuSans-Bold-75" transform="translate(664.501953 0)"/>
     <use xlink:href="#DejaVuSans-Bold-73" transform="translate(735.693359 0)"/>
    </g>
    <!-- Register -->
    <g style="fill: #1f2933" transform="translate(907.564453 444.958922) scale(0.15 -0.15)">
     <defs>
      <path id="DejaVuSans-Bold-52" d="M 2297 2597 
Q 2675 2597 2839 2737 
Q 3003 2878 3003 3200 
Q 3003 3519 2839 3656 
Q 2675 3794 2297 3794 
L 1791 3794 
L 1791 2597 
L 2297 2597 
z
M 1791 1766 
L 1791 0 
L 588 0 
L 588 4666 
L 2425 4666 
Q 3347 4666 3776 4356 
Q 4206 4047 4206 3378 
Q 4206 2916 3982 2619 
Q 3759 2322 3309 2181 
Q 3556 2125 3751 1926 
Q 3947 1728 4147 1325 
L 4800 0 
L 3519 0 
L 2950 1159 
Q 2778 1509 2601 1637 
Q 2425 1766 2131 1766 
L 1791 1766 
z
" transform="scale(0.015625)"/>
     </defs>
     <use xlink:href="#DejaVuSans-Bold-52"/>
     <use xlink:href="#DejaVuSans-Bold-65" transform="translate(77.001953 0)"/>
     <use xlink:href="#DejaVuSans-Bold-67" transform="translate(144.824219 0)"/>
     <use xlink:href="#DejaVuSans-Bold-69" transform="translate(216.40625 0)"/>
     <use xlink:href="#DejaVuSans-Bold-73" transform="translate(250.683594 0)"/>
     <use xlink:href="#DejaVuSans-Bold-74" transform="translate(310.205078 0)"/>
     <use xlink:href="#DejaVuSans-Bold-65" transform="translate(358.007812 0)"/>
     <use xlink:href="#DejaVuSans-Bold-72" transform="translate(425.830078 0)"/>
    </g>
   </g>
   <g id="text_11">
    <!-- Packed status fields -->
    <g style="fill: #334e68" transform="translate(888.747422 467.075312) scale(0.11 -0.11)">
     <defs>
      <path id="DejaVuSans-66" d="M 2375 4863 
L 2375 4384 
L 1825 4384 
Q 1516 4384 1395 4259 
Q 1275 4134 1275 3809 
L 1275 3500 
L 2222 3500 
L 2222 3053 
L 1275 3053 
L 1275 0 
L 697 0 
L 697 3053 
L 147 3053 
L 147 3500 
L 697 3500 
L 697 3744 
Q 697 4328 969 4595 
Q 1241 4863 1831 4863 
L 2375 4863 
z
" transform="scale(0.015625)"/>
     </defs>
     <use xlink:href="#DejaVuSans-50"/>
     <use xlink:href="#DejaVuSans-61" transform="translate(55.802734 0)"/>
     <use xlink:href="#DejaVuSans-63" transform="translate(117.082031 0)"/>
     <use xlink:href="#DejaVuSans-6b" transform="translate(172.0625 0)"/>
     <use xlink:href="#DejaVuSans-65" transform="translate(226.347656 0)"/>
     <use xlink:href="#DejaVuSans-64" transform="translate(287.871094 0)"/>
     <use xlink:href="#DejaVuSans-20" transform="translate(351.347656 0)"/>
     <use xlink:href="#DejaVuSans-73" transform="translate(383.134766 0)"/>
     <use xlink:href="#DejaVuSans-74" transform="translate(435.234375 0)"/>
     <use xlink:href="#DejaVuSans-61" transform="translate(474.443359 0)"/>
     <use xlink:href="#DejaVuSans-74" transform="translate(535.722656 0)"/>
     <use xlink:href="#DejaVuSans-75" transform="translate(574.931641 0)"/>
     <use xlink:href="#DejaVuSans-73" transform="translate(638.310547 0)"/>
     <use xlink:href="#DejaVuSans-20" transform="translate(690.410156 0)"/>
     <use xlink:href="#DejaVuSans-66" transform="translate(722.197266 0)"/>
     <use xlink:href="#DejaVuSans-69" transform="translate(757.402344 0)"/>
     <use xlink:href="#DejaVuSans-65" transform="translate(785.185547 0)"/>
     <use xlink:href="#DejaVuSans-6c" transform="translate(846.708984 0)"/>
     <use xlink:href="#DejaVuSans-64" transform="translate(874.492188 0)"/>
     <use xlink:href="#DejaVuSans-73" transform="translate(937.96875 0)"/>
    </g>
   </g>
   <g id="text_12">
    <g id="patch_13">
     <path d="M 244.0375 440.98707 
L 310.3625 440.98707 
Q 311.1625 440.98707 311.1625 440.18707 
L 311.1625 416.891055 
Q 311.1625 416.091055 310.3625 416.091055 
L 244.0375 416.091055 
Q 243.2375 416.091055 243.2375 416.891055 
L 243.2375 440.18707 
Q 243.2375 440.98707 244.0375 440.98707 
z
" style="fill: #ffffff; stroke: #d9e2ec; stroke-width: 0.8; stroke-linejoin: miter"/>
    </g>
    <!-- Keypad rows -->
    <g style="fill: #243b53" transform="translate(245.4375 425.611367) scale(0.1 -0.1)">
     <defs>
      <path id="DejaVuSans-4b" d="M 628 4666 
L 1259 4666 
L 1259 2694 
L 3353 4666 
L 4166 4666 
L 1850 2491 
L 4331 0 
L 3500 0 
L 1259 2247 
L 1259 0 
L 628 0 
L 628 4666 
z
" transform="scale(0.015625)"/>
      <path id="DejaVuSans-79" d="M 2059 -325 
Q 1816 -950 1584 -1140 
Q 1353 -1331 966 -1331 
L 506 -1331 
L 506 -850 
L 844 -850 
Q 1081 -850 1212 -737 
Q 1344 -625 1503 -206 
L 1606 56 
L 191 3500 
L 800 3500 
L 1894 763 
L 2988 3500 
L 3597 3500 
L 2059 -325 
z
" transform="scale(0.015625)"/>
     </defs>
     <use xlink:href="#DejaVuSans-4b"/>
     <use xlink:href="#DejaVuSans-65" transform="translate(60.576172 0)"/>
     <use xlink:href="#DejaVuSans-79" transform="translate(122.099609 0)"/>
     <use xlink:href="#DejaVuSans-70" transform="translate(181.279297 0)"/>
     <use xlink:href="#DejaVuSans-61" transform="translate(244.755859 0)"/>
     <use xlink:href="#DejaVuSans-64" transform="translate(306.035156 0)"/>
     <use xlink:href="#DejaVuSans-20" transform="translate(369.511719 0)"/>
     <use xlink:href="#DejaVuSans-72" transform="translate(401.298828 0)"/>
     <use xlink:href="#DejaVuSans-6f" transform="translate(440.162109 0)"/>
     <use xlink:href="#DejaVuSans-77" transform="translate(501.34375 0)"/>
     <use xlink:href="#DejaVuSans-73" transform="translate(583.130859 0)"/>
    </g>
    <!-- uio_out[3:0] -->
    <g style="fill: #243b53" transform="translate(246.946094 436.429258) scale(0.1 -0.1)">
     <defs>
      <path id="DejaVuSans-5f" d="M 3263 -1063 
L 3263 -1509 
L -63 -1509 
L -63 -1063 
L 3263 -1063 
z
" transform="scale(0.015625)"/>
      <path id="DejaVuSans-5b" d="M 550 4863 
L 1875 4863 
L 1875 4416 
L 1125 4416 
L 1125 -397 
L 1875 -397 
L 1875 -844 
L 550 -844 
L 550 4863 
z
" transform="scale(0.015625)"/>
      <path id="DejaVuSans-3a" d="M 750 794 
L 1409 794 
L 1409 0 
L 750 0 
L 750 794 
z
M 750 3309 
L 1409 3309 
L 1409 2516 
L 750 2516 
L 750 3309 
z
" transform="scale(0.015625)"/>
      <path id="DejaVuSans-5d" d="M 1947 4863 
L 1947 -844 
L 622 -844 
L 622 -397 
L 1369 -397 
L 1369 4416 
L 622 4416 
L 622 4863 
L 1947 4863 
z
" transform="scale(0.015625)"/>
     </defs>
     <use xlink:href="#DejaVuSans-75"/>
     <use xlink:href="#DejaVuSans-69" transform="translate(63.378906 0)"/>
     <use xlink:href="#DejaVuSans-6f" transform="translate(91.162109 0)"/>
     <use xlink:href="#DejaVuSans-5f" transform="translate(152.34375 0)"/>
     <use xlink:href="#DejaVuSans-6f" transform="translate(202.34375 0)"/>
     <use xlink:href="#DejaVuSans-75" transform="translate(263.525391 0)"/>
     <use xlink:href="#DejaVuSans-74" transform="translate(326.904297 0)"/>
     <use xlink:href="#DejaVuSans-5b" transform="translate(366.113281 0)"/>
     <use xlink:href="#DejaVuSans-33" transform="translate(405.126953 0)"/>
     <use xlink:href="#DejaVuSans-3a" transform="translate(468.75 0)"/>
     <use xlink:href="#DejaVuSans-30" transform="translate(502.441406 0)"/>
     <use xlink:href="#DejaVuSans-5d" transform="translate(566.064453 0)"/>
    </g>
   </g>
   <g id="text_13">
    <g id="patch_14">
     <path d="M 236.883438 270.34707 
L 321.836563 270.34707 
Q 322.636563 270.34707 322.636563 269.54707 
L 322.636563 246.251055 
Q 322.636563 245.451055 321.836563 245.451055 
L 236.883438 245.451055 
Q 236.083438 245.451055 236.083438 246.251055 
L 236.083438 269.54707 
Q 236.083438 270.34707 236.883438 270.34707 
z
" style="fill: #ffffff; stroke: #d9e2ec; stroke-width: 0.8; stroke-linejoin: miter"/>
    </g>
    <!-- Keypad columns -->
    <g style="fill: #243b53" transform="translate(238.283438 254.971367) scale(0.1 -0.1)">
     <use xlink:href="#DejaVuSans-4b"/>
     <use xlink:href="#DejaVuSans-65" transform="translate(60.576172 0)"/>
     <use xlink:href="#DejaVuSans-79" transform="translate(122.099609 0)"/>
     <use xlink:href="#DejaVuSans-70" transform="translate(181.279297 0)"/>
     <use xlink:href="#DejaVuSans-61" transform="translate(244.755859 0)"/>
     <use xlink:href="#DejaVuSans-64" transform="translate(306.035156 0)"/>
     <use xlink:href="#DejaVuSans-20" transform="translate(369.511719 0)"/>
     <use xlink:href="#DejaVuSans-63" transform="translate(401.298828 0)"/>
     <use xlink:href="#DejaVuSans-6f" transform="translate(456.279297 0)"/>
     <use xlink:href="#DejaVuSans-6c" transform="translate(517.460938 0)"/>
     <use xlink:href="#DejaVuSans-75" transform="translate(545.244141 0)"/>
     <use xlink:href="#DejaVuSans-6d" transform="translate(608.623047 0)"/>
     <use xlink:href="#DejaVuSans-6e" transform="translate(706.035156 0)"/>
     <use xlink:href="#DejaVuSans-73" transform="translate(769.414062 0)"/>
    </g>
    <!-- uio_in[7:4] -->
    <g style="fill: #243b53" transform="translate(252.736563 265.789258) scale(0.1 -0.1)">
     <defs>
      <path id="DejaVuSans-37" d="M 525 4666 
L 3525 4666 
L 3525 4397 
L 1831 0 
L 1172 0 
L 2766 4134 
L 525 4134 
L 525 4666 
z
" transform="scale(0.015625)"/>
      <path id="DejaVuSans-34" d="M 2419 4116 
L 825 1625 
L 2419 1625 
L 2419 4116 
z
M 2253 4666 
L 3047 4666 
L 3047 1625 
L 3713 1625 
L 3713 1100 
L 3047 1100 
L 3047 0 
L 2419 0 
L 2419 1100 
L 313 1100 
L 313 1709 
L 2253 4666 
z
" transform="scale(0.015625)"/>
     </defs>
     <use xlink:href="#DejaVuSans-75"/>
     <use xlink:href="#DejaVuSans-69" transform="translate(63.378906 0)"/>
     <use xlink:href="#DejaVuSans-6f" transform="translate(91.162109 0)"/>
     <use xlink:href="#DejaVuSans-5f" transform="translate(152.34375 0)"/>
     <use xlink:href="#DejaVuSans-69" transform="translate(202.34375 0)"/>
     <use xlink:href="#DejaVuSans-6e" transform="translate(230.126953 0)"/>
     <use xlink:href="#DejaVuSans-5b" transform="translate(293.505859 0)"/>
     <use xlink:href="#DejaVuSans-37" transform="translate(332.519531 0)"/>
     <use xlink:href="#DejaVuSans-3a" transform="translate(396.142578 0)"/>
     <use xlink:href="#DejaVuSans-34" transform="translate(429.833984 0)"/>
     <use xlink:href="#DejaVuSans-5d" transform="translate(493.457031 0)"/>
    </g>
   </g>
   <g id="text_14">
    <g id="patch_15">
     <path d="M 518.783906 232.963207 
L 590.016094 232.963207 
Q 590.736094 232.963207 590.736094 232.243207 
L 590.736094 211.276793 
Q 590.736094 210.556793 590.016094 210.556793 
L 518.783906 210.556793 
Q 518.063906 210.556793 518.063906 211.276793 
L 518.063906 232.243207 
Q 518.063906 232.963207 518.783906 232.963207 
z
" style="fill: #ffffff; stroke: #d9e2ec; stroke-width: 0.8; stroke-linejoin: miter"/>
    </g>
    <!-- row drive -->
    <g style="fill: #243b53" transform="translate(533.398359 219.375387) scale(0.09 -0.09)">
     <use xlink:href="#DejaVuSans-72"/>
     <use xlink:href="#DejaVuSans-6f" transform="translate(38.863281 0)"/>
     <use xlink:href="#DejaVuSans-77" transform="translate(100.044922 0)"/>
     <use xlink:href="#DejaVuSans-20" transform="translate(181.832031 0)"/>
     <use xlink:href="#DejaVuSans-64" transform="translate(213.619141 0)"/>
     <use xlink:href="#DejaVuSans-72" transform="translate(277.095703 0)"/>
     <use xlink:href="#DejaVuSans-69" transform="translate(318.208984 0)"/>
     <use xlink:href="#DejaVuSans-76" transform="translate(345.992188 0)"/>
     <use xlink:href="#DejaVuSans-65" transform="translate(405.171875 0)"/>
    </g>
    <!-- column sample -->
    <g style="fill: #243b53" transform="translate(520.043906 229.111488) scale(0.09 -0.09)">
     <use xlink:href="#DejaVuSans-63"/>
     <use xlink:href="#DejaVuSans-6f" transform="translate(54.980469 0)"/>
     <use xlink:href="#DejaVuSans-6c" transform="translate(116.162109 0)"/>
     <use xlink:href="#DejaVuSans-75" transform="translate(143.945312 0)"/>
     <use xlink:href="#DejaVuSans-6d" transform="translate(207.324219 0)"/>
     <use xlink:href="#DejaVuSans-6e" transform="translate(304.736328 0)"/>
     <use xlink:href="#DejaVuSans-20" transform="translate(368.115234 0)"/>
     <use xlink:href="#DejaVuSans-73" transform="translate(399.902344 0)"/>
     <use xlink:href="#DejaVuSans-61" transform="translate(452.001953 0)"/>
     <use xlink:href="#DejaVuSans-6d" transform="translate(513.28125 0)"/>
     <use xlink:href="#DejaVuSans-70" transform="translate(610.693359 0)"/>
     <use xlink:href="#DejaVuSans-6c" transform="translate(674.169922 0)"/>
     <use xlink:href="#DejaVuSans-65" transform="translate(701.953125 0)"/>
    </g>
   </g>
   <g id="text_15">
    <g id="patch_16">
     <path d="M 755.286719 203.526133 
L 857.513281 203.526133 
Q 858.313281 203.526133 858.313281 202.726133 
L 858.313281 178.873867 
Q 858.313281 178.073867 857.513281 178.073867 
L 755.286719 178.073867 
Q 754.486719 178.073867 754.486719 178.873867 
L 754.486719 202.726133 
Q 754.486719 203.526133 755.286719 203.526133 
z
" style="fill: #ffffff; stroke: #d9e2ec; stroke-width: 0.8; stroke-linejoin: miter"/>
    </g>
    <!-- key_valid, key_code -->
    <g style="fill: #243b53" transform="translate(756.686719 187.872305) scale(0.1 -0.1)">
     <use xlink:href="#DejaVuSans-6b"/>
     <use xlink:href="#DejaVuSans-65" transform="translate(54.285156 0)"/>
     <use xlink:href="#DejaVuSans-79" transform="translate(115.808594 0)"/>
     <use xlink:href="#DejaVuSans-5f" transform="translate(174.988281 0)"/>
     <use xlink:href="#DejaVuSans-76" transform="translate(224.988281 0)"/>
     <use xlink:href="#DejaVuSans-61" transform="translate(284.167969 0)"/>
     <use xlink:href="#DejaVuSans-6c" transform="translate(345.447266 0)"/>
     <use xlink:href="#DejaVuSans-69" transform="translate(373.230469 0)"/>
     <use xlink:href="#DejaVuSans-64" transform="translate(401.013672 0)"/>
     <use xlink:href="#DejaVuSans-2c" transform="translate(464.490234 0)"/>
     <use xlink:href="#DejaVuSans-20" transform="translate(496.277344 0)"/>
     <use xlink:href="#DejaVuSans-6b" transform="translate(528.064453 0)"/>
     <use xlink:href="#DejaVuSans-65" transform="translate(582.349609 0)"/>
     <use xlink:href="#DejaVuSans-79" transform="translate(643.873047 0)"/>
     <use xlink:href="#DejaVuSans-5f" transform="translate(703.052734 0)"/>
     <use xlink:href="#DejaVuSans-63" transform="translate(753.052734 0)"/>
     <use xlink:href="#DejaVuSans-6f" transform="translate(808.033203 0)"/>
     <use xlink:href="#DejaVuSans-64" transform="translate(869.214844 0)"/>
     <use xlink:href="#DejaVuSans-65" transform="translate(932.691406 0)"/>
    </g>
    <!-- key_star, key_hash -->
    <g style="fill: #243b53" transform="translate(759.03125 198.96832) scale(0.1 -0.1)">
     <defs>
      <path id="DejaVuSans-68" d="M 3513 2113 
L 3513 0 
L 2938 0 
L 2938 2094 
Q 2938 2591 2744 2837 
Q 2550 3084 2163 3084 
Q 1697 3084 1428 2787 
Q 1159 2491 1159 1978 
L 1159 0 
L 581 0 
L 581 4863 
L 1159 4863 
L 1159 2956 
Q 1366 3272 1645 3428 
Q 1925 3584 2291 3584 
Q 2894 3584 3203 3211 
Q 3513 2838 3513 2113 
z
" transform="scale(0.015625)"/>
     </defs>
     <use xlink:href="#DejaVuSans-6b"/>
     <use xlink:href="#DejaVuSans-65" transform="translate(54.285156 0)"/>
     <use xlink:href="#DejaVuSans-79" transform="translate(115.808594 0)"/>
     <use xlink:href="#DejaVuSans-5f" transform="translate(174.988281 0)"/>
     <use xlink:href="#DejaVuSans-73" transform="translate(224.988281 0)"/>
     <use xlink:href="#DejaVuSans-74" transform="translate(277.087891 0)"/>
     <use xlink:href="#DejaVuSans-61" transform="translate(316.296875 0)"/>
     <use xlink:href="#DejaVuSans-72" transform="translate(377.576172 0)"/>
     <use xlink:href="#DejaVuSans-2c" transform="translate(418.689453 0)"/>
     <use xlink:href="#DejaVuSans-20" transform="translate(450.476562 0)"/>
     <use xlink:href="#DejaVuSans-6b" transform="translate(482.263672 0)"/>
     <use xlink:href="#DejaVuSans-65" transform="translate(536.548828 0)"/>
     <use xlink:href="#DejaVuSans-79" transform="translate(598.072266 0)"/>
     <use xlink:href="#DejaVuSans-5f" transform="translate(657.251953 0)"/>
     <use xlink:href="#DejaVuSans-68" transform="translate(707.251953 0)"/>
     <use xlink:href="#DejaVuSans-61" transform="translate(770.630859 0)"/>
     <use xlink:href="#DejaVuSans-73" transform="translate(831.910156 0)"/>
     <use xlink:href="#DejaVuSans-68" transform="translate(884.009766 0)"/>
    </g>
   </g>
   <g id="text_16">
    <g id="patch_17">
     <path d="M 968.629219 359.135156 
L 1025.770781 359.135156 
Q 1026.490781 359.135156 1026.490781 358.415156 
L 1026.490781 347.184844 
Q 1026.490781 346.464844 1025.770781 346.464844 
L 968.629219 346.464844 
Q 967.909219 346.464844 967.909219 347.184844 
L 967.909219 358.415156 
Q 967.909219 359.135156 968.629219 359.135156 
z
" style="fill: #ffffff; stroke: #d9e2ec; stroke-width: 0.8; stroke-linejoin: miter"/>
    </g>
    <!-- status fields -->
    <g style="fill: #243b53" transform="translate(969.889219 355.283437) scale(0.09 -0.09)">
     <use xlink:href="#DejaVuSans-73"/>
     <use xlink:href="#DejaVuSans-74" transform="translate(52.099609 0)"/>
     <use xlink:href="#DejaVuSans-61" transform="translate(91.308594 0)"/>
     <use xlink:href="#DejaVuSans-74" transform="translate(152.587891 0)"/>
     <use xlink:href="#DejaVuSans-75" transform="translate(191.796875 0)"/>
     <use xlink:href="#DejaVuSans-73" transform="translate(255.175781 0)"/>
     <use xlink:href="#DejaVuSans-20" transform="translate(307.275391 0)"/>
     <use xlink:href="#DejaVuSans-66" transform="translate(339.0625 0)"/>
     <use xlink:href="#DejaVuSans-69" transform="translate(374.267578 0)"/>
     <use xlink:href="#DejaVuSans-65" transform="translate(402.050781 0)"/>
     <use xlink:href="#DejaVuSans-6c" transform="translate(463.574219 0)"/>
     <use xlink:href="#DejaVuSans-64" transform="translate(491.357422 0)"/>
     <use xlink:href="#DejaVuSans-73" transform="translate(554.833984 0)"/>
    </g>
   </g>
   <g id="text_17">
    <g id="patch_18">
     <path d="M 1042.552344 399.94707 
L 1117.447656 399.94707 
Q 1118.247656 399.94707 1118.247656 399.14707 
L 1118.247656 375.294805 
Q 1118.247656 374.494805 1117.447656 374.494805 
L 1042.552344 374.494805 
Q 1041.752344 374.494805 1041.752344 375.294805 
L 1041.752344 399.14707 
Q 1041.752344 399.94707 1042.552344 399.94707 
z
" style="fill: #ffffff; stroke: #d9e2ec; stroke-width: 0.8; stroke-linejoin: miter"/>
    </g>
    <!-- uo_out[7:0] -->
    <g style="fill: #243b53" transform="translate(1051.135156 384.571367) scale(0.1 -0.1)">
     <use xlink:href="#DejaVuSans-75"/>
     <use xlink:href="#DejaVuSans-6f" transform="translate(63.378906 0)"/>
     <use xlink:href="#DejaVuSans-5f" transform="translate(124.560547 0)"/>
     <use xlink:href="#DejaVuSans-6f" transform="translate(174.560547 0)"/>
     <use xlink:href="#DejaVuSans-75" transform="translate(235.742188 0)"/>
     <use xlink:href="#DejaVuSans-74" transform="translate(299.121094 0)"/>
     <use xlink:href="#DejaVuSans-5b" transform="translate(338.330078 0)"/>
     <use xlink:href="#DejaVuSans-37" transform="translate(377.34375 0)"/>
     <use xlink:href="#DejaVuSans-3a" transform="translate(440.966797 0)"/>
     <use xlink:href="#DejaVuSans-30" transform="translate(474.658203 0)"/>
     <use xlink:href="#DejaVuSans-5d" transform="translate(538.28125 0)"/>
    </g>
    <!-- status outputs -->
    <g style="fill: #243b53" transform="translate(1043.952344 395.667383) scale(0.1 -0.1)">
     <use xlink:href="#DejaVuSans-73"/>
     <use xlink:href="#DejaVuSans-74" transform="translate(52.099609 0)"/>
     <use xlink:href="#DejaVuSans-61" transform="translate(91.308594 0)"/>
     <use xlink:href="#DejaVuSans-74" transform="translate(152.587891 0)"/>
     <use xlink:href="#DejaVuSans-75" transform="translate(191.796875 0)"/>
     <use xlink:href="#DejaVuSans-73" transform="translate(255.175781 0)"/>
     <use xlink:href="#DejaVuSans-20" transform="translate(307.275391 0)"/>
     <use xlink:href="#DejaVuSans-6f" transform="translate(339.0625 0)"/>
     <use xlink:href="#DejaVuSans-75" transform="translate(400.244141 0)"/>
     <use xlink:href="#DejaVuSans-74" transform="translate(463.623047 0)"/>
     <use xlink:href="#DejaVuSans-70" transform="translate(502.832031 0)"/>
     <use xlink:href="#DejaVuSans-75" transform="translate(566.308594 0)"/>
     <use xlink:href="#DejaVuSans-74" transform="translate(629.6875 0)"/>
     <use xlink:href="#DejaVuSans-73" transform="translate(668.896484 0)"/>
    </g>
   </g>
   <g id="text_18">
    <!-- clk  rst_n  ena -->
    <g style="fill: #52616b" transform="translate(380.552891 501.122344) scale(0.11 -0.11)">
     <use xlink:href="#DejaVuSans-63"/>
     <use xlink:href="#DejaVuSans-6c" transform="translate(54.980469 0)"/>
     <use xlink:href="#DejaVuSans-6b" transform="translate(82.763672 0)"/>
     <use xlink:href="#DejaVuSans-20" transform="translate(140.673828 0)"/>
     <use xlink:href="#DejaVuSans-20" transform="translate(172.460938 0)"/>
     <use xlink:href="#DejaVuSans-72" transform="translate(204.248047 0)"/>
     <use xlink:href="#DejaVuSans-73" transform="translate(245.361328 0)"/>
     <use xlink:href="#DejaVuSans-74" transform="translate(297.460938 0)"/>
     <use xlink:href="#DejaVuSans-5f" transform="translate(336.669922 0)"/>
     <use xlink:href="#DejaVuSans-6e" transform="translate(386.669922 0)"/>
     <use xlink:href="#DejaVuSans-20" transform="translate(450.048828 0)"/>
     <use xlink:href="#DejaVuSans-20" transform="translate(481.835938 0)"/>
     <use xlink:href="#DejaVuSans-65" transform="translate(513.623047 0)"/>
     <use xlink:href="#DejaVuSans-6e" transform="translate(575.146484 0)"/>
     <use xlink:href="#DejaVuSans-61" transform="translate(638.525391 0)"/>
    </g>
   </g>
  </g>
 </g>
 <defs>
  <clipPath id="p8184de324d">
   <rect x="0" y="0" width="1152" height="648"/>
  </clipPath>
 </defs>
</svg>
