<?xml version="1.0" encoding="utf-8" standalone="no"?>
<!DOCTYPE svg PUBLIC "-//W3C//DTD SVG 1.1//EN"
  "http://www.w3.org/Graphics/SVG/1.1/DTD/svg11.dtd">
<svg xmlns:xlink="http://www.w3.org/1999/xlink" width="1008pt" height="720pt" viewBox="0 0 1008 720" xmlns="http://www.w3.org/2000/svg" version="1.1">
 <metadata>
  <rdf:RDF xmlns:dc="http://purl.org/dc/elements/1.1/" xmlns:cc="http://creativecommons.org/ns#" xmlns:rdf="http://www.w3.org/1999/02/22-rdf-syntax-ns#">
   <cc:Work>
    <dc:type rdf:resource="http://purl.org/dc/dcmitype/StillImage"/>
    <dc:date>2026-05-31T03:16:44.790795</dc:date>
    <dc:format>image/svg+xml</dc:format>
    <dc:creator>
     <cc:Agent>
      <dc:title>Matplotlib v3.10.3, https://matplotlib.org/</dc:title>
     </cc:Agent>
    </dc:creator>
   </cc:Work>
  </rdf:RDF>
 </metadata>
 <defs>
  <style type="text/css">*{stroke-linejoin: round; stroke-linecap: butt}</style>
 </defs>
 <g id="figure_1">
  <g id="patch_1">
   <path d="M 0 720 
L 1008 720 
L 1008 0 
L 0 0 
z
" style="fill: #ffffff"/>
  </g>
  <g id="axes_1">
   <g id="patch_2">
    <path d="M 77.04 624.24 
L 563.76 624.24 
Q 573.84 624.24 573.84 614.16 
L 573.84 127.44 
Q 573.84 117.36 563.76 117.36 
L 77.04 117.36 
Q 66.96 117.36 66.96 127.44 
L 66.96 614.16 
Q 66.96 624.24 77.04 624.24 
z
" clip-path="url(#p578793e0a5)" style="fill: #f8fafc; stroke: #d9e2ec; stroke-width: 1.8; stroke-linejoin: miter"/>
   </g>
   <g id="patch_3">
    <path d="M 97.2 246.24 
L 187.2 246.24 
Q 195.84 246.24 195.84 237.6 
L 195.84 147.6 
Q 195.84 138.96 187.2 138.96 
L 97.2 138.96 
Q 88.56 138.96 88.56 147.6 
L 88.56 237.6 
Q 88.56 246.24 97.2 246.24 
z
" clip-path="url(#p578793e0a5)" style="fill: #ffffff; stroke: #486581; stroke-width: 2; stroke-linejoin: miter"/>
   </g>
   <g id="patch_4">
    <path d="M 216 246.24 
L 306 246.24 
Q 314.64 246.24 314.64 237.6 
L 314.64 147.6 
Q 314.64 138.96 306 138.96 
L 216 138.96 
Q 207.36 138.96 207.36 147.6 
L 207.36 237.6 
Q 207.36 246.24 216 246.24 
z
" clip-path="url(#p578793e0a5)" style="fill: #ffffff; stroke: #486581; stroke-width: 2; stroke-linejoin: miter"/>
   </g>
   <g id="patch_5">
    <path d="M 334.8 246.24 
L 424.8 246.24 
Q 433.44 246.24 433.44 237.6 
L 433.44 147.6 
Q 433.44 138.96 424.8 138.96 
L 334.8 138.96 
Q 326.16 138.96 326.16 147.6 
L 326.16 237.6 
Q 326.16 246.24 334.8 246.24 
z
" clip-path="url(#p578793e0a5)" style="fill: #ffffff; stroke: #486581; stroke-width: 2; stroke-linejoin: miter"/>
   </g>
   <g id="patch_6">
    <path d="M 453.6 246.24 
L 543.6 246.24 
Q 552.24 246.24 552.24 237.6 
L 552.24 147.6 
Q 552.24 138.96 543.6 138.96 
L 453.6 138.96 
Q 444.96 138.96 444.96 147.6 
L 444.96 237.6 
Q 444.96 246.24 453.6 246.24 
z
" clip-path="url(#p578793e0a5)" style="fill: #ffffff; stroke: #486581; stroke-width: 2; stroke-linejoin: miter"/>
   </g>
   <g id="patch_7">
    <path d="M 97.2 365.04 
L 187.2 365.04 
Q 195.84 365.04 195.84 356.4 
L 195.84 266.4 
Q 195.84 257.76 187.2 257.76 
L 97.2 257.76 
Q 88.56 257.76 88.56 266.4 
L 88.56 356.4 
Q 88.56 365.04 97.2 365.04 
z
" clip-path="url(#p578793e0a5)" style="fill: #ffffff; stroke: #486581; stroke-width: 2; stroke-linejoin: miter"/>
   </g>
   <g id="patch_8">
    <path d="M 216 365.04 
L 306 365.04 
Q 314.64 365.04 314.64 356.4 
L 314.64 266.4 
Q 314.64 257.76 306 257.76 
L 216 257.76 
Q 207.36 257.76 207.36 266.4 
L 207.36 356.4 
Q 207.36 365.04 216 365.04 
z
" clip-path="url(#p578793e0a5)" style="fill: #ffffff; stroke: #486581; stroke-width: 2; stroke-linejoin: miter"/>
   </g>
   <g id="patch_9">
    <path d="M 334.8 365.04 
L 424.8 365.04 
Q 433.44 365.04 433.44 356.4 
L 433.44 266.4 
Q 433.44 257.76 424.8 257.76 
L 334.8 257.76 
Q 326.16 257.76 326.16 266.4 
L 326.16 356.4 
Q 326.16 365.04 334.8 365.04 
z
" clip-path="url(#p578793e0a5)" style="fill: #ffffff; stroke: #486581; stroke-width: 2; stroke-linejoin: miter"/>
   </g>
   <g id="patch_10">
    <path d="M 453.6 365.04 
L 543.6 365.04 
Q 552.24 365.04 552.24 356.4 
L 552.24 266.4 
Q 552.24 257.76 543.6 257.76 
L 453.6 257.76 
Q 444.96 257.76 444.96 266.4 
L 444.96 356.4 
Q 444.96 365.04 453.6 365.04 
z
" clip-path="url(#p578793e0a5)" style="fill: #ffffff; stroke: #486581; stroke-width: 2; stroke-linejoin: miter"/>
   </g>
   <g id="patch_11">
    <path d="M 97.2 483.84 
L 187.2 483.84 
Q 195.84 483.84 195.84 475.2 
L 195.84 385.2 
Q 195.84 376.56 187.2 376.56 
L 97.2 376.56 
Q 88.56 376.56 88.56 385.2 
L 88.56 475.2 
Q 88.56 483.84 97.2 483.84 
z
" clip-path="url(#p578793e0a5)" style="fill: #ffffff; stroke: #486581; stroke-width: 2; stroke-linejoin: miter"/>
   </g>
   <g id="patch_12">
    <path d="M 216 483.84 
L 306 483.84 
Q 314.64 483.84 314.64 475.2 
L 314.64 385.2 
Q 314.64 376.56 306 376.56 
L 216 376.56 
Q 207.36 376.56 207.36 385.2 
L 207.36 475.2 
Q 207.36 483.84 216 483.84 
z
" clip-path="url(#p578793e0a5)" style="fill: #ffffff; stroke: #486581; stroke-width: 2; stroke-linejoin: miter"/>
   </g>
   <g id="patch_13">
    <path d="M 334.8 483.84 
L 424.8 483.84 
Q 433.44 483.84 433.44 475.2 
L 433.44 385.2 
Q 433.44 376.56 424.8 376.56 
L 334.8 376.56 
Q 326.16 376.56 326.16 385.2 
L 326.16 475.2 
Q 326.16 483.84 334.8 483.84 
z
" clip-path="url(#p578793e0a5)" style="fill: #ffffff; stroke: #486581; stroke-width: 2; stroke-linejoin: miter"/>
   </g>
   <g id="patch_14">
    <path d="M 453.6 483.84 
L 543.6 483.84 
Q 552.24 483.84 552.24 475.2 
L 552.24 385.2 
Q 552.24 376.56 543.6 376.56 
L 453.6 376.56 
Q 444.96 376.56 444.96 385.2 
L 444.96 475.2 
Q 444.96 483.84 453.6 483.84 
z
" clip-path="url(#p578793e0a5)" style="fill: #ffffff; stroke: #486581; stroke-width: 2; stroke-linejoin: miter"/>
   </g>
   <g id="patch_15">
    <path d="M 97.2 602.64 
L 187.2 602.64 
Q 195.84 602.64 195.84 594 
L 195.84 504 
Q 195.84 495.36 187.2 495.36 
L 97.2 495.36 
Q 88.56 495.36 88.56 504 
L 88.56 594 
Q 88.56 602.64 97.2 602.64 
z
" clip-path="url(#p578793e0a5)" style="fill: #e6fcf5; stroke: #0b7285; stroke-width: 2; stroke-linejoin: miter"/>
   </g>
   <g id="patch_16">
    <path d="M 216 602.64 
L 306 602.64 
Q 314.64 602.64 314.64 594 
L 314.64 504 
Q 314.64 495.36 306 495.36 
L 216 495.36 
Q 207.36 495.36 207.36 504 
L 207.36 594 
Q 207.36 602.64 216 602.64 
z
" clip-path="url(#p578793e0a5)" style="fill: #ffffff; stroke: #486581; stroke-width: 2; stroke-linejoin: miter"/>
   </g>
   <g id="patch_17">
    <path d="M 334.8 602.64 
L 424.8 602.64 
Q 433.44 602.64 433.44 594 
L 433.44 504 
Q 433.44 495.36 424.8 495.36 
L 334.8 495.36 
Q 326.16 495.36 326.16 504 
L 326.16 594 
Q 326.16 602.64 334.8 602.64 
z
" clip-path="url(#p578793e0a5)" style="fill: #fff4e6; stroke: #d9480f; stroke-width: 2; stroke-linejoin: miter"/>
   </g>
   <g id="patch_18">
    <path d="M 453.6 602.64 
L 543.6 602.64 
Q 552.24 602.64 552.24 594 
L 552.24 504 
Q 552.24 495.36 543.6 495.36 
L 453.6 495.36 
Q 444.96 495.36 444.96 504 
L 444.96 594 
Q 444.96 602.64 453.6 602.64 
z
" clip-path="url(#p578793e0a5)" style="fill: #ffffff; stroke: #486581; stroke-width: 2; stroke-linejoin: miter"/>
   </g>
   <g id="patch_19">
    <path d="M 68.4 151.598914 
Q 68.4 385.198851 68.4 616.56272 
" clip-path="url(#p578793e0a5)" style="fill: none; stroke: #5f3dc4; stroke-width: 2; stroke-linecap: round"/>
    <path d="M 72 609.36272 
L 68.4 616.56272 
L 64.8 609.36272 
z
" clip-path="url(#p578793e0a5)" style="fill: #5f3dc4; stroke: #5f3dc4; stroke-width: 2; stroke-linecap: round"/>
   </g>
   <g id="patch_20">
    <path d="M 104.803281 663.84 
Q 322.201358 663.84 537.363367 663.84 
" clip-path="url(#p578793e0a5)" style="fill: none; stroke: #1864ab; stroke-width: 2; stroke-linecap: round"/>
    <path d="M 530.163367 660.24 
L 537.363367 663.84 
L 530.163367 667.44 
z
" clip-path="url(#p578793e0a5)" style="fill: #1864ab; stroke: #1864ab; stroke-width: 2; stroke-linecap: round"/>
   </g>
   <g id="patch_21">
    <path d="M 610.56 232.56 
L 933.84 232.56 
Q 945.36 232.56 945.36 221.04 
L 945.36 187.92 
Q 945.36 176.4 933.84 176.4 
L 610.56 176.4 
Q 599.04 176.4 599.04 187.92 
L 599.04 221.04 
Q 599.04 232.56 610.56 232.56 
z
" clip-path="url(#p578793e0a5)" style="fill: #e6fcf5; stroke: #0b7285; stroke-width: 2; stroke-linejoin: miter"/>
   </g>
   <g id="patch_22">
    <path d="M 610.56 303.12 
L 933.84 303.12 
Q 945.36 303.12 945.36 291.6 
L 945.36 258.48 
Q 945.36 246.96 933.84 246.96 
L 610.56 246.96 
Q 599.04 246.96 599.04 258.48 
L 599.04 291.6 
Q 599.04 303.12 610.56 303.12 
z
" clip-path="url(#p578793e0a5)" style="fill: #fff4e6; stroke: #d9480f; stroke-width: 2; stroke-linejoin: miter"/>
   </g>
   <g id="patch_23">
    <path d="M 610.56 373.68 
L 933.84 373.68 
Q 945.36 373.68 945.36 362.16 
L 945.36 329.04 
Q 945.36 317.52 933.84 317.52 
L 610.56 317.52 
Q 599.04 317.52 599.04 329.04 
L 599.04 362.16 
Q 599.04 373.68 610.56 373.68 
z
" clip-path="url(#p578793e0a5)" style="fill: #f8fafc; stroke: #486581; stroke-width: 2; stroke-linejoin: miter"/>
   </g>
   <g id="patch_24">
    <path d="M 610.56 543.6 
L 933.84 543.6 
Q 945.36 543.6 945.36 532.08 
L 945.36 496.08 
Q 945.36 484.56 933.84 484.56 
L 610.56 484.56 
Q 599.04 484.56 599.04 496.08 
L 599.04 532.08 
Q 599.04 543.6 610.56 543.6 
z
" clip-path="url(#p578793e0a5)" style="fill: #f3f0ff; stroke: #5f3dc4; stroke-width: 2; stroke-linejoin: miter"/>
   </g>
   <g id="patch_25">
    <path d="M 610.56 615.6 
L 933.84 615.6 
Q 945.36 615.6 945.36 604.08 
L 945.36 568.08 
Q 945.36 556.56 933.84 556.56 
L 610.56 556.56 
Q 599.04 556.56 599.04 568.08 
L 599.04 604.08 
Q 599.04 615.6 610.56 615.6 
z
" clip-path="url(#p578793e0a5)" style="fill: #e6f6ff; stroke: #1864ab; stroke-width: 2; stroke-linejoin: miter"/>
   </g>
   <g id="text_1">
    <!-- 4x4 Keypad Mapping and ASIC I/O Connections -->
    <g style="fill: #102a43" transform="translate(173.851562 60.800781) scale(0.25 -0.25)">
     <defs>
      <path id="DejaVuSans-Bold-34" d="M 2356 3675 
L 1038 1722 
L 2356 1722 
L 2356 3675 
z
M 2156 4666 
L 3494 4666 
L 3494 1722 
L 4159 1722 
L 4159 850 
L 3494 850 
L 3494 0 
L 2356 0 
L 2356 850 
L 288 850 
L 288 1881 
L 2156 4666 
z
" transform="scale(0.015625)"/>
      <path id="DejaVuSans-Bold-78" d="M 1422 1791 
L 159 3500 
L 1344 3500 
L 2059 2463 
L 2784 3500 
L 3969 3500 
L 2706 1797 
L 4031 0 
L 2847 0 
L 2059 1106 
L 1281 0 
L 97 0 
L 1422 1791 
z
" transform="scale(0.015625)"/>
      <path id="DejaVuSans-Bold-20" transform="scale(0.015625)"/>
      <path id="DejaVuSans-Bold-4b" d="M 588 4666 
L 1791 4666 
L 1791 2963 
L 3525 4666 
L 4922 4666 
L 2675 2456 
L 5153 0 
L 3647 0 
L 1791 1838 
L 1791 0 
L 588 0 
L 588 4666 
z
" transform="scale(0.015625)"/>
      <path id="DejaVuSans-Bold-65" d="M 4031 1759 
L 4031 1441 
L 1416 1441 
Q 1456 1047 1700 850 
Q 1944 653 2381 653 
Q 2734 653 3104 758 
Q 3475 863 3866 1075 
L 3866 213 
Q 3469 63 3072 -14 
Q 2675 -91 2278 -91 
Q 1328 -91 801 392 
Q 275 875 275 1747 
Q 275 2603 792 3093 
Q 1309 3584 2216 3584 
Q 3041 3584 3536 3087 
Q 4031 2591 4031 1759 
z
M 2881 2131 
Q 2881 2450 2695 2645 
Q 2509 2841 2209 2841 
Q 1884 2841 1681 2658 
Q 1478 2475 1428 2131 
L 2881 2131 
z
" transform="scale(0.015625)"/>
      <path id="DejaVuSans-Bold-79" d="M 78 3500 
L 1197 3500 
L 2138 1125 
L 2938 3500 
L 4056 3500 
L 2584 -331 
Q 2363 -916 2067 -1148 
Q 1772 -1381 1288 -1381 
L 641 -1381 
L 641 -647 
L 991 -647 
Q 1275 -647 1404 -556 
Q 1534 -466 1606 -231 
L 1638 -134 
L 78 3500 
z
" transform="scale(0.015625)"/>
      <path id="DejaVuSans-Bold-70" d="M 1656 506 
L 1656 -1331 
L 538 -1331 
L 538 3500 
L 1656 3500 
L 1656 2988 
Q 1888 3294 2169 3439 
Q 2450 3584 2816 3584 
Q 3463 3584 3878 3070 
Q 4294 2556 4294 1747 
Q 4294 938 3878 423 
Q 3463 -91 2816 -91 
Q 2450 -91 2169 54 
Q 1888 200 1656 506 
z
M 2400 2772 
Q 2041 2772 1848 2508 
Q 1656 2244 1656 1747 
Q 1656 1250 1848 986 
Q 2041 722 2400 722 
Q 2759 722 2948 984 
Q 3138 1247 3138 1747 
Q 3138 2247 2948 2509 
Q 2759 2772 2400 2772 
z
" transform="scale(0.015625)"/>
      <path id="DejaVuSans-Bold-61" d="M 2106 1575 
Q 1756 1575 1579 1456 
Q 1403 1338 1403 1106 
Q 1403 894 1545 773 
Q 1688 653 1941 653 
Q 2256 653 2472 879 
Q 2688 1106 2688 1447 
L 2688 1575 
L 2106 1575 
z
M 3816 1997 
L 3816 0 
L 2688 0 
L 2688 519 
Q 2463 200 2181 54 
Q 1900 -91 1497 -91 
Q 953 -91 614 226 
Q 275 544 275 1050 
Q 275 1666 698 1953 
Q 1122 2241 2028 2241 
L 2688 2241 
L 2688 2328 
Q 2688 2594 2478 2717 
Q 2269 2841 1825 2841 
Q 1466 2841 1156 2769 
Q 847 2697 581 2553 
L 581 3406 
Q 941 3494 1303 3539 
Q 1666 3584 2028 3584 
Q 2975 3584 3395 3211 
Q 3816 2838 3816 1997 
z
" transform="scale(0.015625)"/>
      <path id="DejaVuSans-Bold-64" d="M 2919 2988 
L 2919 4863 
L 4044 4863 
L 4044 0 
L 2919 0 
L 2919 506 
Q 2688 197 2409 53 
Q 2131 -91 1766 -91 
Q 1119 -91 703 423 
Q 288 938 288 1747 
Q 288 2556 703 3070 
Q 1119 3584 1766 3584 
Q 2128 3584 2408 3439 
Q 2688 3294 2919 2988 
z
M 2181 722 
Q 2541 722 2730 984 
Q 2919 1247 2919 1747 
Q 2919 2247 2730 2509 
Q 2541 2772 2181 2772 
Q 1825 2772 1636 2509 
Q 1447 2247 1447 1747 
Q 1447 1247 1636 984 
Q 1825 722 2181 722 
z
" transform="scale(0.015625)"/>
      <path id="DejaVuSans-Bold-4d" d="M 588 4666 
L 2119 4666 
L 3181 2169 
L 4250 4666 
L 5778 4666 
L 5778 0 
L 4641 0 
L 4641 3413 
L 3566 897 
L 2803 897 
L 1728 3413 
L 1728 0 
L 588 0 
L 588 4666 
z
" transform="scale(0.015625)"/>
      <path id="DejaVuSans-Bold-69" d="M 538 3500 
L 1656 3500 
L 1656 0 
L 538 0 
L 538 3500 
z
M 538 4863 
L 1656 4863 
L 1656 3950 
L 538 3950 
L 538 4863 
z
" transform="scale(0.015625)"/>
      <path id="DejaVuSans-Bold-6e" d="M 4056 2131 
L 4056 0 
L 2931 0 
L 2931 347 
L 2931 1631 
Q 2931 2084 2911 2256 
Q 2891 2428 2841 2509 
Q 2775 2619 2662 2680 
Q 2550 2741 2406 2741 
Q 2056 2741 1856 2470 
Q 1656 2200 1656 1722 
L 1656 0 
L 538 0 
L 538 3500 
L 1656 3500 
L 1656 2988 
Q 1909 3294 2193 3439 
Q 2478 3584 2822 3584 
Q 3428 3584 3742 3212 
Q 4056 2841 4056 2131 
z
" transform="scale(0.015625)"/>
      <path id="DejaVuSans-Bold-67" d="M 2919 594 
Q 2688 288 2409 144 
Q 2131 0 1766 0 
Q 1125 0 706 504 
Q 288 1009 288 1791 
Q 288 2575 706 3076 
Q 1125 3578 1766 3578 
Q 2131 3578 2409 3434 
Q 2688 3291 2919 2981 
L 2919 3500 
L 4044 3500 
L 4044 353 
Q 4044 -491 3511 -936 
Q 2978 -1381 1966 -1381 
Q 1638 -1381 1331 -1331 
Q 1025 -1281 716 -1178 
L 716 -306 
Q 1009 -475 1290 -558 
Q 1572 -641 1856 -641 
Q 2406 -641 2662 -400 
Q 2919 -159 2919 353 
L 2919 594 
z
M 2181 2772 
Q 1834 2772 1640 2515 
Q 1447 2259 1447 1791 
Q 1447 1309 1634 1061 
Q 1822 813 2181 813 
Q 2531 813 2725 1069 
Q 2919 1325 2919 1791 
Q 2919 2259 2725 2515 
Q 2531 2772 2181 2772 
z
" transform="scale(0.015625)"/>
      <path id="DejaVuSans-Bold-41" d="M 3419 850 
L 1538 850 
L 1241 0 
L 31 0 
L 1759 4666 
L 3194 4666 
L 4922 0 
L 3713 0 
L 3419 850 
z
M 1838 1716 
L 3116 1716 
L 2478 3572 
L 1838 1716 
z
" transform="scale(0.015625)"/>
      <path id="DejaVuSans-Bold-53" d="M 3834 4519 
L 3834 3531 
Q 3450 3703 3084 3790 
Q 2719 3878 2394 3878 
Q 1963 3878 1756 3759 
Q 1550 3641 1550 3391 
Q 1550 3203 1689 3098 
Q 1828 2994 2194 2919 
L 2706 2816 
Q 3484 2659 3812 2340 
Q 4141 2022 4141 1434 
Q 4141 663 3683 286 
Q 3225 -91 2284 -91 
Q 1841 -91 1394 -6 
Q 947 78 500 244 
L 500 1259 
Q 947 1022 1364 901 
Q 1781 781 2169 781 
Q 2563 781 2772 912 
Q 2981 1044 2981 1288 
Q 2981 1506 2839 1625 
Q 2697 1744 2272 1838 
L 1806 1941 
Q 1106 2091 782 2419 
Q 459 2747 459 3303 
Q 459 4000 909 4375 
Q 1359 4750 2203 4750 
Q 2588 4750 2994 4692 
Q 3400 4634 3834 4519 
z
" transform="scale(0.015625)"/>
      <path id="DejaVuSans-Bold-49" d="M 588 4666 
L 1791 4666 
L 1791 0 
L 588 0 
L 588 4666 
z
" transform="scale(0.015625)"/>
      <path id="DejaVuSans-Bold-43" d="M 4288 256 
Q 3956 84 3597 -3 
Q 3238 -91 2847 -91 
Q 1681 -91 1000 561 
Q 319 1213 319 2328 
Q 319 3447 1000 4098 
Q 1681 4750 2847 4750 
Q 3238 4750 3597 4662 
Q 3956 4575 4288 4403 
L 4288 3438 
Q 3953 3666 3628 3772 
Q 3303 3878 2944 3878 
Q 2300 3878 1931 3465 
Q 1563 3053 1563 2328 
Q 1563 1606 1931 1193 
Q 2300 781 2944 781 
Q 3303 781 3628 887 
Q 3953 994 4288 1222 
L 4288 256 
z
" transform="scale(0.015625)"/>
      <path id="DejaVuSans-Bold-2f" d="M 1644 4666 
L 2338 4666 
L 691 -594 
L 0 -594 
L 1644 4666 
z
" transform="scale(0.015625)"/>
      <path id="DejaVuSans-Bold-4f" d="M 2719 3878 
Q 2169 3878 1866 3472 
Q 1563 3066 1563 2328 
Q 1563 1594 1866 1187 
Q 2169 781 2719 781 
Q 3272 781 3575 1187 
Q 3878 1594 3878 2328 
Q 3878 3066 3575 3472 
Q 3272 3878 2719 3878 
z
M 2719 4750 
Q 3844 4750 4481 4106 
Q 5119 3463 5119 2328 
Q 5119 1197 4481 553 
Q 3844 -91 2719 -91 
Q 1597 -91 958 553 
Q 319 1197 319 2328 
Q 319 3463 958 4106 
Q 1597 4750 2719 4750 
z
" transform="scale(0.015625)"/>
      <path id="DejaVuSans-Bold-6f" d="M 2203 2784 
Q 1831 2784 1636 2517 
Q 1441 2250 1441 1747 
Q 1441 1244 1636 976 
Q 1831 709 2203 709 
Q 2569 709 2762 976 
Q 2956 1244 2956 1747 
Q 2956 2250 2762 2517 
Q 2569 2784 2203 2784 
z
M 2203 3584 
Q 3106 3584 3614 3096 
Q 4122 2609 4122 1747 
Q 4122 884 3614 396 
Q 3106 -91 2203 -91 
Q 1297 -91 786 396 
Q 275 884 275 1747 
Q 275 2609 786 3096 
Q 1297 3584 2203 3584 
z
" transform="scale(0.015625)"/>
      <path id="DejaVuSans-Bold-63" d="M 3366 3391 
L 3366 2478 
Q 3138 2634 2908 2709 
Q 2678 2784 2431 2784 
Q 1963 2784 1702 2511 
Q 1441 2238 1441 1747 
Q 1441 1256 1702 982 
Q 1963 709 2431 709 
Q 2694 709 2930 787 
Q 3166 866 3366 1019 
L 3366 103 
Q 3103 6 2833 -42 
Q 2563 -91 2291 -91 
Q 1344 -91 809 395 
Q 275 881 275 1747 
Q 275 2613 809 3098 
Q 1344 3584 2291 3584 
Q 2566 3584 2833 3536 
Q 3100 3488 3366 3391 
z
" transform="scale(0.015625)"/>
      <path id="DejaVuSans-Bold-74" d="M 1759 4494 
L 1759 3500 
L 2913 3500 
L 2913 2700 
L 1759 2700 
L 1759 1216 
Q 1759 972 1856 886 
Q 1953 800 2241 800 
L 2816 800 
L 2816 0 
L 1856 0 
Q 1194 0 917 276 
Q 641 553 641 1216 
L 641 2700 
L 84 2700 
L 84 3500 
L 641 3500 
L 641 4494 
L 1759 4494 
z
" transform="scale(0.015625)"/>
      <path id="DejaVuSans-Bold-73" d="M 3272 3391 
L 3272 2541 
Q 2913 2691 2578 2766 
Q 2244 2841 1947 2841 
Q 1628 2841 1473 2761 
Q 1319 2681 1319 2516 
Q 1319 2381 1436 2309 
Q 1553 2238 1856 2203 
L 2053 2175 
Q 2913 2066 3209 1816 
Q 3506 1566 3506 1031 
Q 3506 472 3093 190 
Q 2681 -91 1863 -91 
Q 1516 -91 1145 -36 
Q 775 19 384 128 
L 384 978 
Q 719 816 1070 734 
Q 1422 653 1784 653 
Q 2113 653 2278 743 
Q 2444 834 2444 1013 
Q 2444 1163 2330 1236 
Q 2216 1309 1875 1350 
L 1678 1375 
Q 931 1469 631 1722 
Q 331 1975 331 2491 
Q 331 3047 712 3315 
Q 1094 3584 1881 3584 
Q 2191 3584 2531 3537 
Q 2872 3491 3272 3391 
z
" transform="scale(0.015625)"/>
     </defs>
     <use xlink:href="#DejaVuSans-Bold-34"/>
     <use xlink:href="#DejaVuSans-Bold-78" transform="translate(69.580078 0)"/>
     <use xlink:href="#DejaVuSans-Bold-34" transform="translate(134.082031 0)"/>
     <use xlink:href="#DejaVuSans-Bold-20" transform="translate(203.662109 0)"/>
     <use xlink:href="#DejaVuSans-Bold-4b" transform="translate(238.476562 0)"/>
     <use xlink:href="#DejaVuSans-Bold-65" transform="translate(314.216797 0)"/>
     <use xlink:href="#DejaVuSans-Bold-79" transform="translate(382.039062 0)"/>
     <use xlink:href="#DejaVuSans-Bold-70" transform="translate(447.224609 0)"/>
     <use xlink:href="#DejaVuSans-Bold-61" transform="translate(518.806641 0)"/>
     <use xlink:href="#DejaVuSans-Bold-64" transform="translate(586.287109 0)"/>
     <use xlink:href="#DejaVuSans-Bold-20" transform="translate(657.869141 0)"/>
     <use xlink:href="#DejaVuSans-Bold-4d" transform="translate(692.683594 0)"/>
     <use xlink:href="#DejaVuSans-Bold-61" transform="translate(792.195312 0)"/>
     <use xlink:href="#DejaVuSans-Bold-70" transform="translate(859.675781 0)"/>
     <use xlink:href="#DejaVuSans-Bold-70" transform="translate(931.257812 0)"/>
     <use xlink:href="#DejaVuSans-Bold-69" transform="translate(1002.839844 0)"/>
     <use xlink:href="#DejaVuSans-Bold-6e" transform="translate(1037.117188 0)"/>
     <use xlink:href="#DejaVuSans-Bold-67" transform="translate(1108.308594 0)"/>
     <use xlink:href="#DejaVuSans-Bold-20" transform="translate(1179.890625 0)"/>
     <use xlink:href="#DejaVuSans-Bold-61" transform="translate(1214.705078 0)"/>
     <use xlink:href="#DejaVuSans-Bold-6e" transform="translate(1282.185547 0)"/>
     <use xlink:href="#DejaVuSans-Bold-64" transform="translate(1353.376953 0)"/>
     <use xlink:href="#DejaVuSans-Bold-20" transform="translate(1424.958984 0)"/>
     <use xlink:href="#DejaVuSans-Bold-41" transform="translate(1459.773438 0)"/>
     <use xlink:href="#DejaVuSans-Bold-53" transform="translate(1537.166016 0)"/>
     <use xlink:href="#DejaVuSans-Bold-49" transform="translate(1609.1875 0)"/>
     <use xlink:href="#DejaVuSans-Bold-43" transform="translate(1646.394531 0)"/>
     <use xlink:href="#DejaVuSans-Bold-20" transform="translate(1719.783203 0)"/>
     <use xlink:href="#DejaVuSans-Bold-49" transform="translate(1754.597656 0)"/>
     <use xlink:href="#DejaVuSans-Bold-2f" transform="translate(1791.804688 0)"/>
     <use xlink:href="#DejaVuSans-Bold-4f" transform="translate(1828.328125 0)"/>
     <use xlink:href="#DejaVuSans-Bold-20" transform="translate(1913.337891 0)"/>
     <use xlink:href="#DejaVuSans-Bold-43" transform="translate(1948.152344 0)"/>
     <use xlink:href="#DejaVuSans-Bold-6f" transform="translate(2021.541016 0)"/>
     <use xlink:href="#DejaVuSans-Bold-6e" transform="translate(2090.242188 0)"/>
     <use xlink:href="#DejaVuSans-Bold-6e" transform="translate(2161.433594 0)"/>
     <use xlink:href="#DejaVuSans-Bold-65" transform="translate(2232.625 0)"/>
     <use xlink:href="#DejaVuSans-Bold-63" transform="translate(2300.447266 0)"/>
     <use xlink:href="#DejaVuSans-Bold-74" transform="translate(2359.724609 0)"/>
     <use xlink:href="#DejaVuSans-Bold-69" transform="translate(2407.527344 0)"/>
     <use xlink:href="#DejaVuSans-Bold-6f" transform="translate(2441.804688 0)"/>
     <use xlink:href="#DejaVuSans-Bold-6e" transform="translate(2510.505859 0)"/>
     <use xlink:href="#DejaVuSans-Bold-73" transform="translate(2581.697266 0)"/>
    </g>
   </g>
   <g id="text_2">
    <!-- Row 0 -->
    <g style="fill: #5f3dc4" transform="translate(19.050938 195.91125) scale(0.12 -0.12)">
     <defs>
      <path id="DejaVuSans-Bold-52" d="M 2297 2597 
Q 2675 2597 2839 2737 
Q 3003 2878 3003 3200 
Q 3003 3519 2839 3656 
Q 2675 3794 2297 3794 
L 1791 3794 
L 1791 2597 
L 2297 2597 
z
M 1791 1766 
L 1791 0 
L 588 0 
L 588 4666 
L 2425 4666 
Q 3347 4666 3776 4356 
Q 4206 4047 4206 3378 
Q 4206 2916 3982 2619 
Q 3759 2322 3309 2181 
Q 3556 2125 3751 1926 
Q 3947 1728 4147 1325 
L 4800 0 
L 3519 0 
L 2950 1159 
Q 2778 1509 2601 1637 
Q 2425 1766 2131 1766 
L 1791 1766 
z
" transform="scale(0.015625)"/>
      <path id="DejaVuSans-Bold-77" d="M 225 3500 
L 1313 3500 
L 1900 1088 
L 2491 3500 
L 3425 3500 
L 4013 1113 
L 4603 3500 
L 5691 3500 
L 4769 0 
L 3547 0 
L 2956 2406 
L 2369 0 
L 1147 0 
L 225 3500 
z
" transform="scale(0.015625)"/>
      <path id="DejaVuSans-Bold-30" d="M 2944 2338 
Q 2944 3213 2780 3570 
Q 2616 3928 2228 3928 
Q 1841 3928 1675 3570 
Q 1509 3213 1509 2338 
Q 1509 1453 1675 1090 
Q 1841 728 2228 728 
Q 2613 728 2778 1090 
Q 2944 1453 2944 2338 
z
M 4147 2328 
Q 4147 1169 3647 539 
Q 3147 -91 2228 -91 
Q 1306 -91 806 539 
Q 306 1169 306 2328 
Q 306 3491 806 4120 
Q 1306 4750 2228 4750 
Q 3147 4750 3647 4120 
Q 4147 3491 4147 2328 
z
" transform="scale(0.015625)"/>
     </defs>
     <use xlink:href="#DejaVuSans-Bold-52"/>
     <use xlink:href="#DejaVuSans-Bold-6f" transform="translate(77.001953 0)"/>
     <use xlink:href="#DejaVuSans-Bold-77" transform="translate(145.703125 0)"/>
     <use xlink:href="#DejaVuSans-Bold-20" transform="translate(238.085938 0)"/>
     <use xlink:href="#DejaVuSans-Bold-30" transform="translate(272.900391 0)"/>
    </g>
   </g>
   <g id="text_3">
    <!-- 1 -->
    <g style="fill: #102a43" transform="translate(131.763281 200.878125) scale(0.3 -0.3)">
     <defs>
      <path id="DejaVuSans-Bold-31" d="M 750 831 
L 1813 831 
L 1813 3847 
L 722 3622 
L 722 4441 
L 1806 4666 
L 2950 4666 
L 2950 831 
L 4013 831 
L 4013 0 
L 750 0 
L 750 831 
z
" transform="scale(0.015625)"/>
     </defs>
     <use xlink:href="#DejaVuSans-Bold-31"/>
    </g>
   </g>
   <g id="text_4">
    <!-- 2 -->
    <g style="fill: #102a43" transform="translate(250.563281 200.878125) scale(0.3 -0.3)">
     <defs>
      <path id="DejaVuSans-Bold-32" d="M 1844 884 
L 3897 884 
L 3897 0 
L 506 0 
L 506 884 
L 2209 2388 
Q 2438 2594 2547 2791 
Q 2656 2988 2656 3200 
Q 2656 3528 2436 3728 
Q 2216 3928 1850 3928 
Q 1569 3928 1234 3808 
Q 900 3688 519 3450 
L 519 4475 
Q 925 4609 1322 4679 
Q 1719 4750 2100 4750 
Q 2938 4750 3402 4381 
Q 3866 4013 3866 3353 
Q 3866 2972 3669 2642 
Q 3472 2313 2841 1759 
L 1844 884 
z
" transform="scale(0.015625)"/>
     </defs>
     <use xlink:href="#DejaVuSans-Bold-32"/>
    </g>
   </g>
   <g id="text_5">
    <!-- 3 -->
    <g style="fill: #102a43" transform="translate(369.363281 200.878125) scale(0.3 -0.3)">
     <defs>
      <path id="DejaVuSans-Bold-33" d="M 2981 2516 
Q 3453 2394 3698 2092 
Q 3944 1791 3944 1325 
Q 3944 631 3412 270 
Q 2881 -91 1863 -91 
Q 1503 -91 1142 -33 
Q 781 25 428 141 
L 428 1069 
Q 766 900 1098 814 
Q 1431 728 1753 728 
Q 2231 728 2486 893 
Q 2741 1059 2741 1369 
Q 2741 1688 2480 1852 
Q 2219 2016 1709 2016 
L 1228 2016 
L 1228 2791 
L 1734 2791 
Q 2188 2791 2409 2933 
Q 2631 3075 2631 3366 
Q 2631 3634 2415 3781 
Q 2200 3928 1806 3928 
Q 1516 3928 1219 3862 
Q 922 3797 628 3669 
L 628 4550 
Q 984 4650 1334 4700 
Q 1684 4750 2022 4750 
Q 2931 4750 3382 4451 
Q 3834 4153 3834 3553 
Q 3834 3144 3618 2883 
Q 3403 2622 2981 2516 
z
" transform="scale(0.015625)"/>
     </defs>
     <use xlink:href="#DejaVuSans-Bold-33"/>
    </g>
   </g>
   <g id="text_6">
    <!-- A -->
    <g style="fill: #102a43" transform="translate(486.991406 200.878125) scale(0.3 -0.3)">
     <use xlink:href="#DejaVuSans-Bold-41"/>
    </g>
   </g>
   <g id="text_7">
    <!-- Row 1 -->
    <g style="fill: #5f3dc4" transform="translate(19.050938 314.71125) scale(0.12 -0.12)">
     <use xlink:href="#DejaVuSans-Bold-52"/>
     <use xlink:href="#DejaVuSans-Bold-6f" transform="translate(77.001953 0)"/>
     <use xlink:href="#DejaVuSans-Bold-77" transform="translate(145.703125 0)"/>
     <use xlink:href="#DejaVuSans-Bold-20" transform="translate(238.085938 0)"/>
     <use xlink:href="#DejaVuSans-Bold-31" transform="translate(272.900391 0)"/>
    </g>
   </g>
   <g id="text_8">
    <!-- 4 -->
    <g style="fill: #102a43" transform="translate(131.763281 319.678125) scale(0.3 -0.3)">
     <use xlink:href="#DejaVuSans-Bold-34"/>
    </g>
   </g>
   <g id="text_9">
    <!-- 5 -->
    <g style="fill: #102a43" transform="translate(250.563281 319.678125) scale(0.3 -0.3)">
     <defs>
      <path id="DejaVuSans-Bold-35" d="M 678 4666 
L 3669 4666 
L 3669 3781 
L 1638 3781 
L 1638 3059 
Q 1775 3097 1914 3117 
Q 2053 3138 2203 3138 
Q 3056 3138 3531 2711 
Q 4006 2284 4006 1522 
Q 4006 766 3489 337 
Q 2972 -91 2053 -91 
Q 1656 -91 1267 -14 
Q 878 63 494 219 
L 494 1166 
Q 875 947 1217 837 
Q 1559 728 1863 728 
Q 2300 728 2551 942 
Q 2803 1156 2803 1522 
Q 2803 1891 2551 2103 
Q 2300 2316 1863 2316 
Q 1603 2316 1309 2248 
Q 1016 2181 678 2041 
L 678 4666 
z
" transform="scale(0.015625)"/>
     </defs>
     <use xlink:href="#DejaVuSans-Bold-35"/>
    </g>
   </g>
   <g id="text_10">
    <!-- 6 -->
    <g style="fill: #102a43" transform="translate(369.363281 319.678125) scale(0.3 -0.3)">
     <defs>
      <path id="DejaVuSans-Bold-36" d="M 2316 2303 
Q 2000 2303 1842 2098 
Q 1684 1894 1684 1484 
Q 1684 1075 1842 870 
Q 2000 666 2316 666 
Q 2634 666 2792 870 
Q 2950 1075 2950 1484 
Q 2950 1894 2792 2098 
Q 2634 2303 2316 2303 
z
M 3803 4544 
L 3803 3681 
Q 3506 3822 3243 3889 
Q 2981 3956 2731 3956 
Q 2194 3956 1894 3657 
Q 1594 3359 1544 2772 
Q 1750 2925 1990 3001 
Q 2231 3078 2516 3078 
Q 3231 3078 3670 2659 
Q 4109 2241 4109 1563 
Q 4109 813 3618 361 
Q 3128 -91 2303 -91 
Q 1394 -91 895 523 
Q 397 1138 397 2266 
Q 397 3422 980 4083 
Q 1563 4744 2578 4744 
Q 2900 4744 3203 4694 
Q 3506 4644 3803 4544 
z
" transform="scale(0.015625)"/>
     </defs>
     <use xlink:href="#DejaVuSans-Bold-36"/>
    </g>
   </g>
   <g id="text_11">
    <!-- B -->
    <g style="fill: #102a43" transform="translate(487.167187 319.678125) scale(0.3 -0.3)">
     <defs>
      <path id="DejaVuSans-Bold-42" d="M 2456 2859 
Q 2741 2859 2887 2984 
Q 3034 3109 3034 3353 
Q 3034 3594 2887 3720 
Q 2741 3847 2456 3847 
L 1791 3847 
L 1791 2859 
L 2456 2859 
z
M 2497 819 
Q 2859 819 3042 972 
Q 3225 1125 3225 1434 
Q 3225 1738 3044 1889 
Q 2863 2041 2497 2041 
L 1791 2041 
L 1791 819 
L 2497 819 
z
M 3616 2497 
Q 4003 2384 4215 2081 
Q 4428 1778 4428 1338 
Q 4428 663 3972 331 
Q 3516 0 2584 0 
L 588 0 
L 588 4666 
L 2394 4666 
Q 3366 4666 3802 4372 
Q 4238 4078 4238 3431 
Q 4238 3091 4078 2852 
Q 3919 2613 3616 2497 
z
" transform="scale(0.015625)"/>
     </defs>
     <use xlink:href="#DejaVuSans-Bold-42"/>
    </g>
   </g>
   <g id="text_12">
    <!-- Row 2 -->
    <g style="fill: #5f3dc4" transform="translate(19.050938 433.51125) scale(0.12 -0.12)">
     <use xlink:href="#DejaVuSans-Bold-52"/>
     <use xlink:href="#DejaVuSans-Bold-6f" transform="translate(77.001953 0)"/>
     <use xlink:href="#DejaVuSans-Bold-77" transform="translate(145.703125 0)"/>
     <use xlink:href="#DejaVuSans-Bold-20" transform="translate(238.085938 0)"/>
     <use xlink:href="#DejaVuSans-Bold-32" transform="translate(272.900391 0)"/>
    </g>
   </g>
   <g id="text_13">
    <!-- 7 -->
    <g style="fill: #102a43" transform="translate(131.763281 438.478125) scale(0.3 -0.3)">
     <defs>
      <path id="DejaVuSans-Bold-37" d="M 428 4666 
L 3944 4666 
L 3944 3988 
L 2125 0 
L 953 0 
L 2675 3781 
L 428 3781 
L 428 4666 
z
" transform="scale(0.015625)"/>
     </defs>
     <use xlink:href="#DejaVuSans-Bold-37"/>
    </g>
   </g>
   <g id="text_14">
    <!-- 8 -->
    <g style="fill: #102a43" transform="translate(250.563281 438.478125) scale(0.3 -0.3)">
     <defs>
      <path id="DejaVuSans-Bold-38" d="M 2228 2088 
Q 1891 2088 1709 1903 
Q 1528 1719 1528 1375 
Q 1528 1031 1709 848 
Q 1891 666 2228 666 
Q 2563 666 2741 848 
Q 2919 1031 2919 1375 
Q 2919 1722 2741 1905 
Q 2563 2088 2228 2088 
z
M 1350 2484 
Q 925 2613 709 2878 
Q 494 3144 494 3541 
Q 494 4131 934 4440 
Q 1375 4750 2228 4750 
Q 3075 4750 3515 4442 
Q 3956 4134 3956 3541 
Q 3956 3144 3739 2878 
Q 3522 2613 3097 2484 
Q 3572 2353 3814 2058 
Q 4056 1763 4056 1313 
Q 4056 619 3595 264 
Q 3134 -91 2228 -91 
Q 1319 -91 855 264 
Q 391 619 391 1313 
Q 391 1763 633 2058 
Q 875 2353 1350 2484 
z
M 1631 3419 
Q 1631 3141 1786 2991 
Q 1941 2841 2228 2841 
Q 2509 2841 2662 2991 
Q 2816 3141 2816 3419 
Q 2816 3697 2662 3845 
Q 2509 3994 2228 3994 
Q 1941 3994 1786 3844 
Q 1631 3694 1631 3419 
z
" transform="scale(0.015625)"/>
     </defs>
     <use xlink:href="#DejaVuSans-Bold-38"/>
    </g>
   </g>
   <g id="text_15">
    <!-- 9 -->
    <g style="fill: #102a43" transform="translate(369.363281 438.478125) scale(0.3 -0.3)">
     <defs>
      <path id="DejaVuSans-Bold-39" d="M 641 103 
L 641 966 
Q 928 831 1190 764 
Q 1453 697 1709 697 
Q 2247 697 2547 995 
Q 2847 1294 2900 1881 
Q 2688 1725 2447 1647 
Q 2206 1569 1925 1569 
Q 1209 1569 770 1986 
Q 331 2403 331 3084 
Q 331 3838 820 4291 
Q 1309 4744 2131 4744 
Q 3044 4744 3544 4128 
Q 4044 3513 4044 2388 
Q 4044 1231 3459 570 
Q 2875 -91 1856 -91 
Q 1528 -91 1228 -42 
Q 928 6 641 103 
z
M 2125 2350 
Q 2441 2350 2600 2554 
Q 2759 2759 2759 3169 
Q 2759 3575 2600 3781 
Q 2441 3988 2125 3988 
Q 1809 3988 1650 3781 
Q 1491 3575 1491 3169 
Q 1491 2759 1650 2554 
Q 1809 2350 2125 2350 
z
" transform="scale(0.015625)"/>
     </defs>
     <use xlink:href="#DejaVuSans-Bold-39"/>
    </g>
   </g>
   <g id="text_16">
    <!-- C -->
    <g style="fill: #102a43" transform="translate(487.591406 438.478125) scale(0.3 -0.3)">
     <use xlink:href="#DejaVuSans-Bold-43"/>
    </g>
   </g>
   <g id="text_17">
    <!-- Row 3 -->
    <g style="fill: #5f3dc4" transform="translate(19.050938 552.31125) scale(0.12 -0.12)">
     <use xlink:href="#DejaVuSans-Bold-52"/>
     <use xlink:href="#DejaVuSans-Bold-6f" transform="translate(77.001953 0)"/>
     <use xlink:href="#DejaVuSans-Bold-77" transform="translate(145.703125 0)"/>
     <use xlink:href="#DejaVuSans-Bold-20" transform="translate(238.085938 0)"/>
     <use xlink:href="#DejaVuSans-Bold-33" transform="translate(272.900391 0)"/>
    </g>
   </g>
   <g id="text_18">
    <!-- * -->
    <g style="fill: #102a43" transform="translate(134.355469 557.278125) scale(0.3 -0.3)">
     <defs>
      <path id="DejaVuSans-Bold-2a" d="M 3219 3803 
L 2188 3263 
L 3219 2719 
L 2981 2278 
L 1941 2853 
L 1941 1778 
L 1409 1778 
L 1409 2853 
L 366 2278 
L 128 2719 
L 1172 3263 
L 128 3803 
L 366 4244 
L 1409 3675 
L 1409 4750 
L 1941 4750 
L 1941 3675 
L 2981 4244 
L 3219 3803 
z
" transform="scale(0.015625)"/>
     </defs>
     <use xlink:href="#DejaVuSans-Bold-2a"/>
    </g>
   </g>
   <g id="text_19">
    <!-- 0 -->
    <g style="fill: #102a43" transform="translate(250.563281 557.278125) scale(0.3 -0.3)">
     <use xlink:href="#DejaVuSans-Bold-30"/>
    </g>
   </g>
   <g id="text_20">
    <!-- # -->
    <g style="fill: #102a43" transform="translate(367.230469 557.278125) scale(0.3 -0.3)">
     <defs>
      <path id="DejaVuSans-Bold-23" d="M 2847 4594 
L 2547 3391 
L 3372 3391 
L 3675 4594 
L 4366 4594 
L 4063 3391 
L 4928 3391 
L 4928 2725 
L 3897 2725 
L 3681 1869 
L 4569 1869 
L 4569 1197 
L 3519 1197 
L 3219 0 
L 2528 0 
L 2828 1197 
L 2003 1197 
L 1703 0 
L 1006 0 
L 1306 1197 
L 434 1197 
L 434 1869 
L 1459 1869 
L 1678 2725 
L 794 2725 
L 794 3391 
L 1850 3391 
L 2150 4594 
L 2847 4594 
z
M 3200 2725 
L 2375 2725 
L 2156 1869 
L 2981 1869 
L 3200 2725 
z
" transform="scale(0.015625)"/>
     </defs>
     <use xlink:href="#DejaVuSans-Bold-23"/>
    </g>
   </g>
   <g id="text_21">
    <!-- D -->
    <g style="fill: #102a43" transform="translate(486.147656 557.278125) scale(0.3 -0.3)">
     <defs>
      <path id="DejaVuSans-Bold-44" d="M 1791 3756 
L 1791 909 
L 2222 909 
Q 2959 909 3348 1275 
Q 3738 1641 3738 2338 
Q 3738 3031 3350 3393 
Q 2963 3756 2222 3756 
L 1791 3756 
z
M 588 4666 
L 1856 4666 
Q 2919 4666 3439 4514 
Q 3959 4363 4331 4000 
Q 4659 3684 4818 3271 
Q 4978 2859 4978 2338 
Q 4978 1809 4818 1395 
Q 4659 981 4331 666 
Q 3956 303 3431 151 
Q 2906 0 1856 0 
L 588 0 
L 588 4666 
z
" transform="scale(0.015625)"/>
     </defs>
     <use xlink:href="#DejaVuSans-Bold-44"/>
    </g>
   </g>
   <g id="text_22">
    <!-- Col 0 -->
    <g style="fill: #1864ab" transform="translate(125.354063 649.15125) scale(0.12 -0.12)">
     <defs>
      <path id="DejaVuSans-Bold-6c" d="M 538 4863 
L 1656 4863 
L 1656 0 
L 538 0 
L 538 4863 
z
" transform="scale(0.015625)"/>
     </defs>
     <use xlink:href="#DejaVuSans-Bold-43"/>
     <use xlink:href="#DejaVuSans-Bold-6f" transform="translate(73.388672 0)"/>
     <use xlink:href="#DejaVuSans-Bold-6c" transform="translate(142.089844 0)"/>
     <use xlink:href="#DejaVuSans-Bold-20" transform="translate(176.367188 0)"/>
     <use xlink:href="#DejaVuSans-Bold-30" transform="translate(211.181641 0)"/>
    </g>
   </g>
   <g id="text_23">
    <!-- Col 1 -->
    <g style="fill: #1864ab" transform="translate(244.154063 649.15125) scale(0.12 -0.12)">
     <use xlink:href="#DejaVuSans-Bold-43"/>
     <use xlink:href="#DejaVuSans-Bold-6f" transform="translate(73.388672 0)"/>
     <use xlink:href="#DejaVuSans-Bold-6c" transform="translate(142.089844 0)"/>
     <use xlink:href="#DejaVuSans-Bold-20" transform="translate(176.367188 0)"/>
     <use xlink:href="#DejaVuSans-Bold-31" transform="translate(211.181641 0)"/>
    </g>
   </g>
   <g id="text_24">
    <!-- Col 2 -->
    <g style="fill: #1864ab" transform="translate(362.954062 649.15125) scale(0.12 -0.12)">
     <use xlink:href="#DejaVuSans-Bold-43"/>
     <use xlink:href="#DejaVuSans-Bold-6f" transform="translate(73.388672 0)"/>
     <use xlink:href="#DejaVuSans-Bold-6c" transform="translate(142.089844 0)"/>
     <use xlink:href="#DejaVuSans-Bold-20" transform="translate(176.367188 0)"/>
     <use xlink:href="#DejaVuSans-Bold-32" transform="translate(211.181641 0)"/>
    </g>
   </g>
   <g id="text_25">
    <!-- Col 3 -->
    <g style="fill: #1864ab" transform="translate(481.754062 649.15125) scale(0.12 -0.12)">
     <use xlink:href="#DejaVuSans-Bold-43"/>
     <use xlink:href="#DejaVuSans-Bold-6f" transform="translate(73.388672 0)"/>
     <use xlink:href="#DejaVuSans-Bold-6c" transform="translate(142.089844 0)"/>
     <use xlink:href="#DejaVuSans-Bold-20" transform="translate(176.367188 0)"/>
     <use xlink:href="#DejaVuSans-Bold-33" transform="translate(211.181641 0)"/>
    </g>
   </g>
   <g id="text_26">
    <g id="patch_26">
     <path d="M 128.447656 158.396016 
L 217.152344 158.396016 
Q 217.952344 158.396016 217.952344 157.596016 
L 217.952344 122.925859 
Q 217.952344 122.125859 217.152344 122.125859 
L 128.447656 122.125859 
Q 127.647656 122.125859 127.647656 122.925859 
L 127.647656 157.596016 
Q 127.647656 158.396016 128.447656 158.396016 
z
" style="fill: #ffffff; stroke: #d9e2ec; stroke-width: 0.8; stroke-linejoin: miter"/>
    </g>
    <!-- uio_out[3:0] -->
    <g style="fill: #243b53" transform="translate(142.546094 132.202422) scale(0.1 -0.1)">
     <defs>
      <path id="DejaVuSans-75" d="M 544 1381 
L 544 3500 
L 1119 3500 
L 1119 1403 
Q 1119 906 1312 657 
Q 1506 409 1894 409 
Q 2359 409 2629 706 
Q 2900 1003 2900 1516 
L 2900 3500 
L 3475 3500 
L 3475 0 
L 2900 0 
L 2900 538 
Q 2691 219 2414 64 
Q 2138 -91 1772 -91 
Q 1169 -91 856 284 
Q 544 659 544 1381 
z
M 1991 3584 
L 1991 3584 
z
" transform="scale(0.015625)"/>
      <path id="DejaVuSans-69" d="M 603 3500 
L 1178 3500 
L 1178 0 
L 603 0 
L 603 3500 
z
M 603 4863 
L 1178 4863 
L 1178 4134 
L 603 4134 
L 603 4863 
z
" transform="scale(0.015625)"/>
      <path id="DejaVuSans-6f" d="M 1959 3097 
Q 1497 3097 1228 2736 
Q 959 2375 959 1747 
Q 959 1119 1226 758 
Q 1494 397 1959 397 
Q 2419 397 2687 759 
Q 2956 1122 2956 1747 
Q 2956 2369 2687 2733 
Q 2419 3097 1959 3097 
z
M 1959 3584 
Q 2709 3584 3137 3096 
Q 3566 2609 3566 1747 
Q 3566 888 3137 398 
Q 2709 -91 1959 -91 
Q 1206 -91 779 398 
Q 353 888 353 1747 
Q 353 2609 779 3096 
Q 1206 3584 1959 3584 
z
" transform="scale(0.015625)"/>
      <path id="DejaVuSans-5f" d="M 3263 -1063 
L 3263 -1509 
L -63 -1509 
L -63 -1063 
L 3263 -1063 
z
" transform="scale(0.015625)"/>
      <path id="DejaVuSans-74" d="M 1172 4494 
L 1172 3500 
L 2356 3500 
L 2356 3053 
L 1172 3053 
L 1172 1153 
Q 1172 725 1289 603 
Q 1406 481 1766 481 
L 2356 481 
L 2356 0 
L 1766 0 
Q 1100 0 847 248 
Q 594 497 594 1153 
L 594 3053 
L 172 3053 
L 172 3500 
L 594 3500 
L 594 4494 
L 1172 4494 
z
" transform="scale(0.015625)"/>
      <path id="DejaVuSans-5b" d="M 550 4863 
L 1875 4863 
L 1875 4416 
L 1125 4416 
L 1125 -397 
L 1875 -397 
L 1875 -844 
L 550 -844 
L 550 4863 
z
" transform="scale(0.015625)"/>
      <path id="DejaVuSans-33" d="M 2597 2516 
Q 3050 2419 3304 2112 
Q 3559 1806 3559 1356 
Q 3559 666 3084 287 
Q 2609 -91 1734 -91 
Q 1441 -91 1130 -33 
Q 819 25 488 141 
L 488 750 
Q 750 597 1062 519 
Q 1375 441 1716 441 
Q 2309 441 2620 675 
Q 2931 909 2931 1356 
Q 2931 1769 2642 2001 
Q 2353 2234 1838 2234 
L 1294 2234 
L 1294 2753 
L 1863 2753 
Q 2328 2753 2575 2939 
Q 2822 3125 2822 3475 
Q 2822 3834 2567 4026 
Q 2313 4219 1838 4219 
Q 1578 4219 1281 4162 
Q 984 4106 628 3988 
L 628 4550 
Q 988 4650 1302 4700 
Q 1616 4750 1894 4750 
Q 2613 4750 3031 4423 
Q 3450 4097 3450 3541 
Q 3450 3153 3228 2886 
Q 3006 2619 2597 2516 
z
" transform="scale(0.015625)"/>
      <path id="DejaVuSans-3a" d="M 750 794 
L 1409 794 
L 1409 0 
L 750 0 
L 750 794 
z
M 750 3309 
L 1409 3309 
L 1409 2516 
L 750 2516 
L 750 3309 
z
" transform="scale(0.015625)"/>
      <path id="DejaVuSans-30" d="M 2034 4250 
Q 1547 4250 1301 3770 
Q 1056 3291 1056 2328 
Q 1056 1369 1301 889 
Q 1547 409 2034 409 
Q 2525 409 2770 889 
Q 3016 1369 3016 2328 
Q 3016 3291 2770 3770 
Q 2525 4250 2034 4250 
z
M 2034 4750 
Q 2819 4750 3233 4129 
Q 3647 3509 3647 2328 
Q 3647 1150 3233 529 
Q 2819 -91 2034 -91 
Q 1250 -91 836 529 
Q 422 1150 422 2328 
Q 422 3509 836 4129 
Q 1250 4750 2034 4750 
z
" transform="scale(0.015625)"/>
      <path id="DejaVuSans-5d" d="M 1947 4863 
L 1947 -844 
L 622 -844 
L 622 -397 
L 1369 -397 
L 1369 4416 
L 622 4416 
L 622 4863 
L 1947 4863 
z
" transform="scale(0.015625)"/>
     </defs>
     <use xlink:href="#DejaVuSans-75"/>
     <use xlink:href="#DejaVuSans-69" transform="translate(63.378906 0)"/>
     <use xlink:href="#DejaVuSans-6f" transform="translate(91.162109 0)"/>
     <use xlink:href="#DejaVuSans-5f" transform="translate(152.34375 0)"/>
     <use xlink:href="#DejaVuSans-6f" transform="translate(202.34375 0)"/>
     <use xlink:href="#DejaVuSans-75" transform="translate(263.525391 0)"/>
     <use xlink:href="#DejaVuSans-74" transform="translate(326.904297 0)"/>
     <use xlink:href="#DejaVuSans-5b" transform="translate(366.113281 0)"/>
     <use xlink:href="#DejaVuSans-33" transform="translate(405.126953 0)"/>
     <use xlink:href="#DejaVuSans-3a" transform="translate(468.75 0)"/>
     <use xlink:href="#DejaVuSans-30" transform="translate(502.441406 0)"/>
     <use xlink:href="#DejaVuSans-5d" transform="translate(566.064453 0)"/>
    </g>
    <!-- row scan outputs -->
    <g style="fill: #243b53" transform="translate(129.847656 143.298437) scale(0.1 -0.1)">
     <defs>
      <path id="DejaVuSans-72" d="M 2631 2963 
Q 2534 3019 2420 3045 
Q 2306 3072 2169 3072 
Q 1681 3072 1420 2755 
Q 1159 2438 1159 1844 
L 1159 0 
L 581 0 
L 581 3500 
L 1159 3500 
L 1159 2956 
Q 1341 3275 1631 3429 
Q 1922 3584 2338 3584 
Q 2397 3584 2469 3576 
Q 2541 3569 2628 3553 
L 2631 2963 
z
" transform="scale(0.015625)"/>
      <path id="DejaVuSans-77" d="M 269 3500 
L 844 3500 
L 1563 769 
L 2278 3500 
L 2956 3500 
L 3675 769 
L 4391 3500 
L 4966 3500 
L 4050 0 
L 3372 0 
L 2619 2869 
L 1863 0 
L 1184 0 
L 269 3500 
z
" transform="scale(0.015625)"/>
      <path id="DejaVuSans-20" transform="scale(0.015625)"/>
      <path id="DejaVuSans-73" d="M 2834 3397 
L 2834 2853 
Q 2591 2978 2328 3040 
Q 2066 3103 1784 3103 
Q 1356 3103 1142 2972 
Q 928 2841 928 2578 
Q 928 2378 1081 2264 
Q 1234 2150 1697 2047 
L 1894 2003 
Q 2506 1872 2764 1633 
Q 3022 1394 3022 966 
Q 3022 478 2636 193 
Q 2250 -91 1575 -91 
Q 1294 -91 989 -36 
Q 684 19 347 128 
L 347 722 
Q 666 556 975 473 
Q 1284 391 1588 391 
Q 1994 391 2212 530 
Q 2431 669 2431 922 
Q 2431 1156 2273 1281 
Q 2116 1406 1581 1522 
L 1381 1569 
Q 847 1681 609 1914 
Q 372 2147 372 2553 
Q 372 3047 722 3315 
Q 1072 3584 1716 3584 
Q 2034 3584 2315 3537 
Q 2597 3491 2834 3397 
z
" transform="scale(0.015625)"/>
      <path id="DejaVuSans-63" d="M 3122 3366 
L 3122 2828 
Q 2878 2963 2633 3030 
Q 2388 3097 2138 3097 
Q 1578 3097 1268 2742 
Q 959 2388 959 1747 
Q 959 1106 1268 751 
Q 1578 397 2138 397 
Q 2388 397 2633 464 
Q 2878 531 3122 666 
L 3122 134 
Q 2881 22 2623 -34 
Q 2366 -91 2075 -91 
Q 1284 -91 818 406 
Q 353 903 353 1747 
Q 353 2603 823 3093 
Q 1294 3584 2113 3584 
Q 2378 3584 2631 3529 
Q 2884 3475 3122 3366 
z
" transform="scale(0.015625)"/>
      <path id="DejaVuSans-61" d="M 2194 1759 
Q 1497 1759 1228 1600 
Q 959 1441 959 1056 
Q 959 750 1161 570 
Q 1363 391 1709 391 
Q 2188 391 2477 730 
Q 2766 1069 2766 1631 
L 2766 1759 
L 2194 1759 
z
M 3341 1997 
L 3341 0 
L 2766 0 
L 2766 531 
Q 2569 213 2275 61 
Q 1981 -91 1556 -91 
Q 1019 -91 701 211 
Q 384 513 384 1019 
Q 384 1609 779 1909 
Q 1175 2209 1959 2209 
L 2766 2209 
L 2766 2266 
Q 2766 2663 2505 2880 
Q 2244 3097 1772 3097 
Q 1472 3097 1187 3025 
Q 903 2953 641 2809 
L 641 3341 
Q 956 3463 1253 3523 
Q 1550 3584 1831 3584 
Q 2591 3584 2966 3190 
Q 3341 2797 3341 1997 
z
" transform="scale(0.015625)"/>
      <path id="DejaVuSans-6e" d="M 3513 2113 
L 3513 0 
L 2938 0 
L 2938 2094 
Q 2938 2591 2744 2837 
Q 2550 3084 2163 3084 
Q 1697 3084 1428 2787 
Q 1159 2491 1159 1978 
L 1159 0 
L 581 0 
L 581 3500 
L 1159 3500 
L 1159 2956 
Q 1366 3272 1645 3428 
Q 1925 3584 2291 3584 
Q 2894 3584 3203 3211 
Q 3513 2838 3513 2113 
z
" transform="scale(0.015625)"/>
      <path id="DejaVuSans-70" d="M 1159 525 
L 1159 -1331 
L 581 -1331 
L 581 3500 
L 1159 3500 
L 1159 2969 
Q 1341 3281 1617 3432 
Q 1894 3584 2278 3584 
Q 2916 3584 3314 3078 
Q 3713 2572 3713 1747 
Q 3713 922 3314 415 
Q 2916 -91 2278 -91 
Q 1894 -91 1617 61 
Q 1341 213 1159 525 
z
M 3116 1747 
Q 3116 2381 2855 2742 
Q 2594 3103 2138 3103 
Q 1681 3103 1420 2742 
Q 1159 2381 1159 1747 
Q 1159 1113 1420 752 
Q 1681 391 2138 391 
Q 2594 391 2855 752 
Q 3116 1113 3116 1747 
z
" transform="scale(0.015625)"/>
     </defs>
     <use xlink:href="#DejaVuSans-72"/>
     <use xlink:href="#DejaVuSans-6f" transform="translate(38.863281 0)"/>
     <use xlink:href="#DejaVuSans-77" transform="translate(100.044922 0)"/>
     <use xlink:href="#DejaVuSans-20" transform="translate(181.832031 0)"/>
     <use xlink:href="#DejaVuSans-73" transform="translate(213.619141 0)"/>
     <use xlink:href="#DejaVuSans-63" transform="translate(265.71875 0)"/>
     <use xlink:href="#DejaVuSans-61" transform="translate(320.699219 0)"/>
     <use xlink:href="#DejaVuSans-6e" transform="translate(381.978516 0)"/>
     <use xlink:href="#DejaVuSans-20" transform="translate(445.357422 0)"/>
     <use xlink:href="#DejaVuSans-6f" transform="translate(477.144531 0)"/>
     <use xlink:href="#DejaVuSans-75" transform="translate(538.326172 0)"/>
     <use xlink:href="#DejaVuSans-74" transform="translate(601.705078 0)"/>
     <use xlink:href="#DejaVuSans-70" transform="translate(640.914062 0)"/>
     <use xlink:href="#DejaVuSans-75" transform="translate(704.390625 0)"/>
     <use xlink:href="#DejaVuSans-74" transform="translate(767.769531 0)"/>
     <use xlink:href="#DejaVuSans-73" transform="translate(806.978516 0)"/>
    </g>
    <!-- from ASIC -->
    <g style="fill: #243b53" transform="translate(148.017187 154.116328) scale(0.1 -0.1)">
     <defs>
      <path id="DejaVuSans-66" d="M 2375 4863 
L 2375 4384 
L 1825 4384 
Q 1516 4384 1395 4259 
Q 1275 4134 1275 3809 
L 1275 3500 
L 2222 3500 
L 2222 3053 
L 1275 3053 
L 1275 0 
L 697 0 
L 697 3053 
L 147 3053 
L 147 3500 
L 697 3500 
L 697 3744 
Q 697 4328 969 4595 
Q 1241 4863 1831 4863 
L 2375 4863 
z
" transform="scale(0.015625)"/>
      <path id="DejaVuSans-6d" d="M 3328 2828 
Q 3544 3216 3844 3400 
Q 4144 3584 4550 3584 
Q 5097 3584 5394 3201 
Q 5691 2819 5691 2113 
L 5691 0 
L 5113 0 
L 5113 2094 
Q 5113 2597 4934 2840 
Q 4756 3084 4391 3084 
Q 3944 3084 3684 2787 
Q 3425 2491 3425 1978 
L 3425 0 
L 2847 0 
L 2847 2094 
Q 2847 2600 2669 2842 
Q 2491 3084 2119 3084 
Q 1678 3084 1418 2786 
Q 1159 2488 1159 1978 
L 1159 0 
L 581 0 
L 581 3500 
L 1159 3500 
L 1159 2956 
Q 1356 3278 1631 3431 
Q 1906 3584 2284 3584 
Q 2666 3584 2933 3390 
Q 3200 3197 3328 2828 
z
" transform="scale(0.015625)"/>
      <path id="DejaVuSans-41" d="M 2188 4044 
L 1331 1722 
L 3047 1722 
L 2188 4044 
z
M 1831 4666 
L 2547 4666 
L 4325 0 
L 3669 0 
L 3244 1197 
L 1141 1197 
L 716 0 
L 50 0 
L 1831 4666 
z
" transform="scale(0.015625)"/>
      <path id="DejaVuSans-53" d="M 3425 4513 
L 3425 3897 
Q 3066 4069 2747 4153 
Q 2428 4238 2131 4238 
Q 1616 4238 1336 4038 
Q 1056 3838 1056 3469 
Q 1056 3159 1242 3001 
Q 1428 2844 1947 2747 
L 2328 2669 
Q 3034 2534 3370 2195 
Q 3706 1856 3706 1288 
Q 3706 609 3251 259 
Q 2797 -91 1919 -91 
Q 1588 -91 1214 -16 
Q 841 59 441 206 
L 441 856 
Q 825 641 1194 531 
Q 1563 422 1919 422 
Q 2459 422 2753 634 
Q 3047 847 3047 1241 
Q 3047 1584 2836 1778 
Q 2625 1972 2144 2069 
L 1759 2144 
Q 1053 2284 737 2584 
Q 422 2884 422 3419 
Q 422 4038 858 4394 
Q 1294 4750 2059 4750 
Q 2388 4750 2728 4690 
Q 3069 4631 3425 4513 
z
" transform="scale(0.015625)"/>
      <path id="DejaVuSans-49" d="M 628 4666 
L 1259 4666 
L 1259 0 
L 628 0 
L 628 4666 
z
" transform="scale(0.015625)"/>
      <path id="DejaVuSans-43" d="M 4122 4306 
L 4122 3641 
Q 3803 3938 3442 4084 
Q 3081 4231 2675 4231 
Q 1875 4231 1450 3742 
Q 1025 3253 1025 2328 
Q 1025 1406 1450 917 
Q 1875 428 2675 428 
Q 3081 428 3442 575 
Q 3803 722 4122 1019 
L 4122 359 
Q 3791 134 3420 21 
Q 3050 -91 2638 -91 
Q 1578 -91 968 557 
Q 359 1206 359 2328 
Q 359 3453 968 4101 
Q 1578 4750 2638 4750 
Q 3056 4750 3426 4639 
Q 3797 4528 4122 4306 
z
" transform="scale(0.015625)"/>
     </defs>
     <use xlink:href="#DejaVuSans-66"/>
     <use xlink:href="#DejaVuSans-72" transform="translate(35.205078 0)"/>
     <use xlink:href="#DejaVuSans-6f" transform="translate(74.068359 0)"/>
     <use xlink:href="#DejaVuSans-6d" transform="translate(135.25 0)"/>
     <use xlink:href="#DejaVuSans-20" transform="translate(232.662109 0)"/>
     <use xlink:href="#DejaVuSans-41" transform="translate(264.449219 0)"/>
     <use xlink:href="#DejaVuSans-53" transform="translate(332.857422 0)"/>
     <use xlink:href="#DejaVuSans-49" transform="translate(396.333984 0)"/>
     <use xlink:href="#DejaVuSans-43" transform="translate(425.826172 0)"/>
    </g>
   </g>
   <g id="text_27">
    <g id="patch_27">
     <path d="M 229.789844 701.258125 
L 411.010156 701.258125 
Q 411.810156 701.258125 411.810156 700.458125 
L 411.810156 687.701875 
Q 411.810156 686.901875 411.010156 686.901875 
L 229.789844 686.901875 
Q 228.989844 686.901875 228.989844 687.701875 
L 228.989844 700.458125 
Q 228.989844 701.258125 229.789844 701.258125 
z
" style="fill: #ffffff; stroke: #d9e2ec; stroke-width: 0.8; stroke-linejoin: miter"/>
    </g>
    <!-- uio_in[7:4] = column inputs to ASIC -->
    <g style="fill: #243b53" transform="translate(231.189844 696.700312) scale(0.1 -0.1)">
     <defs>
      <path id="DejaVuSans-37" d="M 525 4666 
L 3525 4666 
L 3525 4397 
L 1831 0 
L 1172 0 
L 2766 4134 
L 525 4134 
L 525 4666 
z
" transform="scale(0.015625)"/>
      <path id="DejaVuSans-34" d="M 2419 4116 
L 825 1625 
L 2419 1625 
L 2419 4116 
z
M 2253 4666 
L 3047 4666 
L 3047 1625 
L 3713 1625 
L 3713 1100 
L 3047 1100 
L 3047 0 
L 2419 0 
L 2419 1100 
L 313 1100 
L 313 1709 
L 2253 4666 
z
" transform="scale(0.015625)"/>
      <path id="DejaVuSans-3d" d="M 678 2906 
L 4684 2906 
L 4684 2381 
L 678 2381 
L 678 2906 
z
M 678 1631 
L 4684 1631 
L 4684 1100 
L 678 1100 
L 678 1631 
z
" transform="scale(0.015625)"/>
      <path id="DejaVuSans-6c" d="M 603 4863 
L 1178 4863 
L 1178 0 
L 603 0 
L 603 4863 
z
" transform="scale(0.015625)"/>
     </defs>
     <use xlink:href="#DejaVuSans-75"/>
     <use xlink:href="#DejaVuSans-69" transform="translate(63.378906 0)"/>
     <use xlink:href="#DejaVuSans-6f" transform="translate(91.162109 0)"/>
     <use xlink:href="#DejaVuSans-5f" transform="translate(152.34375 0)"/>
     <use xlink:href="#DejaVuSans-69" transform="translate(202.34375 0)"/>
     <use xlink:href="#DejaVuSans-6e" transform="translate(230.126953 0)"/>
     <use xlink:href="#DejaVuSans-5b" transform="translate(293.505859 0)"/>
     <use xlink:href="#DejaVuSans-37" transform="translate(332.519531 0)"/>
     <use xlink:href="#DejaVuSans-3a" transform="translate(396.142578 0)"/>
     <use xlink:href="#DejaVuSans-34" transform="translate(429.833984 0)"/>
     <use xlink:href="#DejaVuSans-5d" transform="translate(493.457031 0)"/>
     <use xlink:href="#DejaVuSans-20" transform="translate(532.470703 0)"/>
     <use xlink:href="#DejaVuSans-3d" transform="translate(564.257812 0)"/>
     <use xlink:href="#DejaVuSans-20" transform="translate(648.046875 0)"/>
     <use xlink:href="#DejaVuSans-63" transform="translate(679.833984 0)"/>
     <use xlink:href="#DejaVuSans-6f" transform="translate(734.814453 0)"/>
     <use xlink:href="#DejaVuSans-6c" transform="translate(795.996094 0)"/>
     <use xlink:href="#DejaVuSans-75" transform="translate(823.779297 0)"/>
     <use xlink:href="#DejaVuSans-6d" transform="translate(887.158203 0)"/>
     <use xlink:href="#DejaVuSans-6e" transform="translate(984.570312 0)"/>
     <use xlink:href="#DejaVuSans-20" transform="translate(1047.949219 0)"/>
     <use xlink:href="#DejaVuSans-69" transform="translate(1079.736328 0)"/>
     <use xlink:href="#DejaVuSans-6e" transform="translate(1107.519531 0)"/>
     <use xlink:href="#DejaVuSans-70" transform="translate(1170.898438 0)"/>
     <use xlink:href="#DejaVuSans-75" transform="translate(1234.375 0)"/>
     <use xlink:href="#DejaVuSans-74" transform="translate(1297.753906 0)"/>
     <use xlink:href="#DejaVuSans-73" transform="translate(1336.962891 0)"/>
     <use xlink:href="#DejaVuSans-20" transform="translate(1389.0625 0)"/>
     <use xlink:href="#DejaVuSans-74" transform="translate(1420.849609 0)"/>
     <use xlink:href="#DejaVuSans-6f" transform="translate(1460.058594 0)"/>
     <use xlink:href="#DejaVuSans-20" transform="translate(1521.240234 0)"/>
     <use xlink:href="#DejaVuSans-41" transform="translate(1553.027344 0)"/>
     <use xlink:href="#DejaVuSans-53" transform="translate(1621.435547 0)"/>
     <use xlink:href="#DejaVuSans-49" transform="translate(1684.912109 0)"/>
     <use xlink:href="#DejaVuSans-43" transform="translate(1714.404297 0)"/>
    </g>
   </g>
   <g id="text_28">
    <!-- Key Functions -->
    <g style="fill: #102a43" transform="translate(601.2 152.496562) scale(0.18 -0.18)">
     <defs>
      <path id="DejaVuSans-Bold-46" d="M 588 4666 
L 3834 4666 
L 3834 3756 
L 1791 3756 
L 1791 2888 
L 3713 2888 
L 3713 1978 
L 1791 1978 
L 1791 0 
L 588 0 
L 588 4666 
z
" transform="scale(0.015625)"/>
      <path id="DejaVuSans-Bold-75" d="M 500 1363 
L 500 3500 
L 1625 3500 
L 1625 3150 
Q 1625 2866 1622 2436 
Q 1619 2006 1619 1863 
Q 1619 1441 1641 1255 
Q 1663 1069 1716 984 
Q 1784 875 1895 815 
Q 2006 756 2150 756 
Q 2500 756 2700 1025 
Q 2900 1294 2900 1772 
L 2900 3500 
L 4019 3500 
L 4019 0 
L 2900 0 
L 2900 506 
Q 2647 200 2364 54 
Q 2081 -91 1741 -91 
Q 1134 -91 817 281 
Q 500 653 500 1363 
z
" transform="scale(0.015625)"/>
     </defs>
     <use xlink:href="#DejaVuSans-Bold-4b"/>
     <use xlink:href="#DejaVuSans-Bold-65" transform="translate(75.740234 0)"/>
     <use xlink:href="#DejaVuSans-Bold-79" transform="translate(143.5625 0)"/>
     <use xlink:href="#DejaVuSans-Bold-20" transform="translate(208.748047 0)"/>
     <use xlink:href="#DejaVuSans-Bold-46" transform="translate(243.5625 0)"/>
     <use xlink:href="#DejaVuSans-Bold-75" transform="translate(306.873047 0)"/>
     <use xlink:href="#DejaVuSans-Bold-6e" transform="translate(378.064453 0)"/>
     <use xlink:href="#DejaVuSans-Bold-63" transform="translate(449.255859 0)"/>
     <use xlink:href="#DejaVuSans-Bold-74" transform="translate(508.533203 0)"/>
     <use xlink:href="#DejaVuSans-Bold-69" transform="translate(556.335938 0)"/>
     <use xlink:href="#DejaVuSans-Bold-6f" transform="translate(590.613281 0)"/>
     <use xlink:href="#DejaVuSans-Bold-6e" transform="translate(659.314453 0)"/>
     <use xlink:href="#DejaVuSans-Bold-73" transform="translate(730.505859 0)"/>
    </g>
   </g>
   <g id="text_29">
    <!-- * = store password -->
    <g style="fill: #1f2933" transform="translate(697.036406 208.343125) scale(0.14 -0.14)">
     <defs>
      <path id="DejaVuSans-Bold-3d" d="M 678 3084 
L 4684 3084 
L 4684 2350 
L 678 2350 
L 678 3084 
z
M 678 1663 
L 4684 1663 
L 4684 922 
L 678 922 
L 678 1663 
z
" transform="scale(0.015625)"/>
      <path id="DejaVuSans-Bold-72" d="M 3138 2547 
Q 2991 2616 2845 2648 
Q 2700 2681 2553 2681 
Q 2122 2681 1889 2404 
Q 1656 2128 1656 1613 
L 1656 0 
L 538 0 
L 538 3500 
L 1656 3500 
L 1656 2925 
Q 1872 3269 2151 3426 
Q 2431 3584 2822 3584 
Q 2878 3584 2943 3579 
Q 3009 3575 3134 3559 
L 3138 2547 
z
" transform="scale(0.015625)"/>
     </defs>
     <use xlink:href="#DejaVuSans-Bold-2a"/>
     <use xlink:href="#DejaVuSans-Bold-20" transform="translate(52.294922 0)"/>
     <use xlink:href="#DejaVuSans-Bold-3d" transform="translate(87.109375 0)"/>
     <use xlink:href="#DejaVuSans-Bold-20" transform="translate(170.898438 0)"/>
     <use xlink:href="#DejaVuSans-Bold-73" transform="translate(205.712891 0)"/>
     <use xlink:href="#DejaVuSans-Bold-74" transform="translate(265.234375 0)"/>
     <use xlink:href="#DejaVuSans-Bold-6f" transform="translate(313.037109 0)"/>
     <use xlink:href="#DejaVuSans-Bold-72" transform="translate(381.738281 0)"/>
     <use xlink:href="#DejaVuSans-Bold-65" transform="translate(431.054688 0)"/>
     <use xlink:href="#DejaVuSans-Bold-20" transform="translate(498.876953 0)"/>
     <use xlink:href="#DejaVuSans-Bold-70" transform="translate(533.691406 0)"/>
     <use xlink:href="#DejaVuSans-Bold-61" transform="translate(605.273438 0)"/>
     <use xlink:href="#DejaVuSans-Bold-73" transform="translate(672.753906 0)"/>
     <use xlink:href="#DejaVuSans-Bold-73" transform="translate(732.275391 0)"/>
     <use xlink:href="#DejaVuSans-Bold-77" transform="translate(791.796875 0)"/>
     <use xlink:href="#DejaVuSans-Bold-6f" transform="translate(884.179688 0)"/>
     <use xlink:href="#DejaVuSans-Bold-72" transform="translate(952.880859 0)"/>
     <use xlink:href="#DejaVuSans-Bold-64" transform="translate(1002.197266 0)"/>
    </g>
   </g>
   <g id="text_30">
    <!-- # = check password -->
    <g style="fill: #1f2933" transform="translate(692.666875 278.903125) scale(0.14 -0.14)">
     <defs>
      <path id="DejaVuSans-Bold-68" d="M 4056 2131 
L 4056 0 
L 2931 0 
L 2931 347 
L 2931 1625 
Q 2931 2084 2911 2256 
Q 2891 2428 2841 2509 
Q 2775 2619 2662 2680 
Q 2550 2741 2406 2741 
Q 2056 2741 1856 2470 
Q 1656 2200 1656 1722 
L 1656 0 
L 538 0 
L 538 4863 
L 1656 4863 
L 1656 2988 
Q 1909 3294 2193 3439 
Q 2478 3584 2822 3584 
Q 3428 3584 3742 3212 
Q 4056 2841 4056 2131 
z
" transform="scale(0.015625)"/>
      <path id="DejaVuSans-Bold-6b" d="M 538 4863 
L 1656 4863 
L 1656 2216 
L 2944 3500 
L 4244 3500 
L 2534 1894 
L 4378 0 
L 3022 0 
L 1656 1459 
L 1656 0 
L 538 0 
L 538 4863 
z
" transform="scale(0.015625)"/>
     </defs>
     <use xlink:href="#DejaVuSans-Bold-23"/>
     <use xlink:href="#DejaVuSans-Bold-20" transform="translate(83.789062 0)"/>
     <use xlink:href="#DejaVuSans-Bold-3d" transform="translate(118.603516 0)"/>
     <use xlink:href="#DejaVuSans-Bold-20" transform="translate(202.392578 0)"/>
     <use xlink:href="#DejaVuSans-Bold-63" transform="translate(237.207031 0)"/>
     <use xlink:href="#DejaVuSans-Bold-68" transform="translate(296.484375 0)"/>
     <use xlink:href="#DejaVuSans-Bold-65" transform="translate(367.675781 0)"/>
     <use xlink:href="#DejaVuSans-Bold-63" transform="translate(435.498047 0)"/>
     <use xlink:href="#DejaVuSans-Bold-6b" transform="translate(494.775391 0)"/>
     <use xlink:href="#DejaVuSans-Bold-20" transform="translate(561.279297 0)"/>
     <use xlink:href="#DejaVuSans-Bold-70" transform="translate(596.09375 0)"/>
     <use xlink:href="#DejaVuSans-Bold-61" transform="translate(667.675781 0)"/>
     <use xlink:href="#DejaVuSans-Bold-73" transform="translate(735.15625 0)"/>
     <use xlink:href="#DejaVuSans-Bold-73" transform="translate(794.677734 0)"/>
     <use xlink:href="#DejaVuSans-Bold-77" transform="translate(854.199219 0)"/>
     <use xlink:href="#DejaVuSans-Bold-6f" transform="translate(946.582031 0)"/>
     <use xlink:href="#DejaVuSans-Bold-72" transform="translate(1015.283203 0)"/>
     <use xlink:href="#DejaVuSans-Bold-64" transform="translate(1064.599609 0)"/>
    </g>
   </g>
   <g id="text_31">
    <!-- 0-9, A-D = 4-bit code input -->
    <g style="fill: #1f2933" transform="translate(666.740625 349.463125) scale(0.14 -0.14)">
     <defs>
      <path id="DejaVuSans-Bold-2d" d="M 347 2297 
L 2309 2297 
L 2309 1388 
L 347 1388 
L 347 2297 
z
" transform="scale(0.015625)"/>
      <path id="DejaVuSans-Bold-2c" d="M 653 1209 
L 1778 1209 
L 1778 256 
L 1006 -909 
L 341 -909 
L 653 256 
L 653 1209 
z
" transform="scale(0.015625)"/>
      <path id="DejaVuSans-Bold-62" d="M 2400 722 
Q 2759 722 2948 984 
Q 3138 1247 3138 1747 
Q 3138 2247 2948 2509 
Q 2759 2772 2400 2772 
Q 2041 2772 1848 2508 
Q 1656 2244 1656 1747 
Q 1656 1250 1848 986 
Q 2041 722 2400 722 
z
M 1656 2988 
Q 1888 3294 2169 3439 
Q 2450 3584 2816 3584 
Q 3463 3584 3878 3070 
Q 4294 2556 4294 1747 
Q 4294 938 3878 423 
Q 3463 -91 2816 -91 
Q 2450 -91 2169 54 
Q 1888 200 1656 506 
L 1656 0 
L 538 0 
L 538 4863 
L 1656 4863 
L 1656 2988 
z
" transform="scale(0.015625)"/>
     </defs>
     <use xlink:href="#DejaVuSans-Bold-30"/>
     <use xlink:href="#DejaVuSans-Bold-2d" transform="translate(69.580078 0)"/>
     <use xlink:href="#DejaVuSans-Bold-39" transform="translate(111.083984 0)"/>
     <use xlink:href="#DejaVuSans-Bold-2c" transform="translate(180.664062 0)"/>
     <use xlink:href="#DejaVuSans-Bold-20" transform="translate(218.652344 0)"/>
     <use xlink:href="#DejaVuSans-Bold-41" transform="translate(253.466797 0)"/>
     <use xlink:href="#DejaVuSans-Bold-2d" transform="translate(330.859375 0)"/>
     <use xlink:href="#DejaVuSans-Bold-44" transform="translate(372.363281 0)"/>
     <use xlink:href="#DejaVuSans-Bold-20" transform="translate(455.371094 0)"/>
     <use xlink:href="#DejaVuSans-Bold-3d" transform="translate(490.185547 0)"/>
     <use xlink:href="#DejaVuSans-Bold-20" transform="translate(573.974609 0)"/>
     <use xlink:href="#DejaVuSans-Bold-34" transform="translate(608.789062 0)"/>
     <use xlink:href="#DejaVuSans-Bold-2d" transform="translate(678.369141 0)"/>
     <use xlink:href="#DejaVuSans-Bold-62" transform="translate(719.873047 0)"/>
     <use xlink:href="#DejaVuSans-Bold-69" transform="translate(791.455078 0)"/>
     <use xlink:href="#DejaVuSans-Bold-74" transform="translate(825.732422 0)"/>
     <use xlink:href="#DejaVuSans-Bold-20" transform="translate(873.535156 0)"/>
     <use xlink:href="#DejaVuSans-Bold-63" transform="translate(908.349609 0)"/>
     <use xlink:href="#DejaVuSans-Bold-6f" transform="translate(967.626953 0)"/>
     <use xlink:href="#DejaVuSans-Bold-64" transform="translate(1036.328125 0)"/>
     <use xlink:href="#DejaVuSans-Bold-65" transform="translate(1107.910156 0)"/>
     <use xlink:href="#DejaVuSans-Bold-20" transform="translate(1175.732422 0)"/>
     <use xlink:href="#DejaVuSans-Bold-69" transform="translate(1210.546875 0)"/>
     <use xlink:href="#DejaVuSans-Bold-6e" transform="translate(1244.824219 0)"/>
     <use xlink:href="#DejaVuSans-Bold-70" transform="translate(1316.015625 0)"/>
     <use xlink:href="#DejaVuSans-Bold-75" transform="translate(1387.597656 0)"/>
     <use xlink:href="#DejaVuSans-Bold-74" transform="translate(1458.789062 0)"/>
    </g>
   </g>
   <g id="text_32">
    <!-- Electrical Direction -->
    <g style="fill: #102a43" transform="translate(601.2 464.326875) scale(0.18 -0.18)">
     <defs>
      <path id="DejaVuSans-Bold-45" d="M 588 4666 
L 3834 4666 
L 3834 3756 
L 1791 3756 
L 1791 2888 
L 3713 2888 
L 3713 1978 
L 1791 1978 
L 1791 909 
L 3903 909 
L 3903 0 
L 588 0 
L 588 4666 
z
" transform="scale(0.015625)"/>
     </defs>
     <use xlink:href="#DejaVuSans-Bold-45"/>
     <use xlink:href="#DejaVuSans-Bold-6c" transform="translate(68.310547 0)"/>
     <use xlink:href="#DejaVuSans-Bold-65" transform="translate(102.587891 0)"/>
     <use xlink:href="#DejaVuSans-Bold-63" transform="translate(170.410156 0)"/>
     <use xlink:href="#DejaVuSans-Bold-74" transform="translate(229.6875 0)"/>
     <use xlink:href="#DejaVuSans-Bold-72" transform="translate(277.490234 0)"/>
     <use xlink:href="#DejaVuSans-Bold-69" transform="translate(326.806641 0)"/>
     <use xlink:href="#DejaVuSans-Bold-63" transform="translate(361.083984 0)"/>
     <use xlink:href="#DejaVuSans-Bold-61" transform="translate(420.361328 0)"/>
     <use xlink:href="#DejaVuSans-Bold-6c" transform="translate(487.841797 0)"/>
     <use xlink:href="#DejaVuSans-Bold-20" transform="translate(522.119141 0)"/>
     <use xlink:href="#DejaVuSans-Bold-44" transform="translate(556.933594 0)"/>
     <use xlink:href="#DejaVuSans-Bold-69" transform="translate(639.941406 0)"/>
     <use xlink:href="#DejaVuSans-Bold-72" transform="translate(674.21875 0)"/>
     <use xlink:href="#DejaVuSans-Bold-65" transform="translate(723.535156 0)"/>
     <use xlink:href="#DejaVuSans-Bold-63" transform="translate(791.357422 0)"/>
     <use xlink:href="#DejaVuSans-Bold-74" transform="translate(850.634766 0)"/>
     <use xlink:href="#DejaVuSans-Bold-69" transform="translate(898.4375 0)"/>
     <use xlink:href="#DejaVuSans-Bold-6f" transform="translate(932.714844 0)"/>
     <use xlink:href="#DejaVuSans-Bold-6e" transform="translate(1001.416016 0)"/>
    </g>
   </g>
   <g id="text_33">
    <!-- ASIC drives one row at a time -->
    <g style="fill: #1f2933" transform="translate(655.189531 517.943125) scale(0.14 -0.14)">
     <defs>
      <path id="DejaVuSans-Bold-76" d="M 97 3500 
L 1216 3500 
L 2088 1081 
L 2956 3500 
L 4078 3500 
L 2700 0 
L 1472 0 
L 97 3500 
z
" transform="scale(0.015625)"/>
      <path id="DejaVuSans-Bold-6d" d="M 3781 2919 
Q 3994 3244 4286 3414 
Q 4578 3584 4928 3584 
Q 5531 3584 5847 3212 
Q 6163 2841 6163 2131 
L 6163 0 
L 5038 0 
L 5038 1825 
Q 5041 1866 5042 1909 
Q 5044 1953 5044 2034 
Q 5044 2406 4934 2573 
Q 4825 2741 4581 2741 
Q 4263 2741 4089 2478 
Q 3916 2216 3909 1719 
L 3909 0 
L 2784 0 
L 2784 1825 
Q 2784 2406 2684 2573 
Q 2584 2741 2328 2741 
Q 2006 2741 1831 2477 
Q 1656 2213 1656 1722 
L 1656 0 
L 531 0 
L 531 3500 
L 1656 3500 
L 1656 2988 
Q 1863 3284 2130 3434 
Q 2397 3584 2719 3584 
Q 3081 3584 3359 3409 
Q 3638 3234 3781 2919 
z
" transform="scale(0.015625)"/>
     </defs>
     <use xlink:href="#DejaVuSans-Bold-41"/>
     <use xlink:href="#DejaVuSans-Bold-53" transform="translate(77.392578 0)"/>
     <use xlink:href="#DejaVuSans-Bold-49" transform="translate(149.414062 0)"/>
     <use xlink:href="#DejaVuSans-Bold-43" transform="translate(186.621094 0)"/>
     <use xlink:href="#DejaVuSans-Bold-20" transform="translate(260.009766 0)"/>
     <use xlink:href="#DejaVuSans-Bold-64" transform="translate(294.824219 0)"/>
     <use xlink:href="#DejaVuSans-Bold-72" transform="translate(366.40625 0)"/>
     <use xlink:href="#DejaVuSans-Bold-69" transform="translate(415.722656 0)"/>
     <use xlink:href="#DejaVuSans-Bold-76" transform="translate(450 0)"/>
     <use xlink:href="#DejaVuSans-Bold-65" transform="translate(515.185547 0)"/>
     <use xlink:href="#DejaVuSans-Bold-73" transform="translate(583.007812 0)"/>
     <use xlink:href="#DejaVuSans-Bold-20" transform="translate(642.529297 0)"/>
     <use xlink:href="#DejaVuSans-Bold-6f" transform="translate(677.34375 0)"/>
     <use xlink:href="#DejaVuSans-Bold-6e" transform="translate(746.044922 0)"/>
     <use xlink:href="#DejaVuSans-Bold-65" transform="translate(817.236328 0)"/>
     <use xlink:href="#DejaVuSans-Bold-20" transform="translate(885.058594 0)"/>
     <use xlink:href="#DejaVuSans-Bold-72" transform="translate(919.873047 0)"/>
     <use xlink:href="#DejaVuSans-Bold-6f" transform="translate(969.189453 0)"/>
     <use xlink:href="#DejaVuSans-Bold-77" transform="translate(1037.890625 0)"/>
     <use xlink:href="#DejaVuSans-Bold-20" transform="translate(1130.273438 0)"/>
     <use xlink:href="#DejaVuSans-Bold-61" transform="translate(1165.087891 0)"/>
     <use xlink:href="#DejaVuSans-Bold-74" transform="translate(1232.568359 0)"/>
     <use xlink:href="#DejaVuSans-Bold-20" transform="translate(1280.371094 0)"/>
     <use xlink:href="#DejaVuSans-Bold-61" transform="translate(1315.185547 0)"/>
     <use xlink:href="#DejaVuSans-Bold-20" transform="translate(1382.666016 0)"/>
     <use xlink:href="#DejaVuSans-Bold-74" transform="translate(1417.480469 0)"/>
     <use xlink:href="#DejaVuSans-Bold-69" transform="translate(1465.283203 0)"/>
     <use xlink:href="#DejaVuSans-Bold-6d" transform="translate(1499.560547 0)"/>
     <use xlink:href="#DejaVuSans-Bold-65" transform="translate(1603.759766 0)"/>
    </g>
   </g>
   <g id="text_34">
    <!-- ASIC reads the four column lines -->
    <g style="fill: #1f2933" transform="translate(643.033594 589.943125) scale(0.14 -0.14)">
     <defs>
      <path id="DejaVuSans-Bold-66" d="M 2841 4863 
L 2841 4128 
L 2222 4128 
Q 1984 4128 1890 4042 
Q 1797 3956 1797 3744 
L 1797 3500 
L 2753 3500 
L 2753 2700 
L 1797 2700 
L 1797 0 
L 678 0 
L 678 2700 
L 122 2700 
L 122 3500 
L 678 3500 
L 678 3744 
Q 678 4316 997 4589 
Q 1316 4863 1984 4863 
L 2841 4863 
z
" transform="scale(0.015625)"/>
     </defs>
     <use xlink:href="#DejaVuSans-Bold-41"/>
     <use xlink:href="#DejaVuSans-Bold-53" transform="translate(77.392578 0)"/>
     <use xlink:href="#DejaVuSans-Bold-49" transform="translate(149.414062 0)"/>
     <use xlink:href="#DejaVuSans-Bold-43" transform="translate(186.621094 0)"/>
     <use xlink:href="#DejaVuSans-Bold-20" transform="translate(260.009766 0)"/>
     <use xlink:href="#DejaVuSans-Bold-72" transform="translate(294.824219 0)"/>
     <use xlink:href="#DejaVuSans-Bold-65" transform="translate(344.140625 0)"/>
     <use xlink:href="#DejaVuSans-Bold-61" transform="translate(411.962891 0)"/>
     <use xlink:href="#DejaVuSans-Bold-64" transform="translate(479.443359 0)"/>
     <use xlink:href="#DejaVuSans-Bold-73" transform="translate(551.025391 0)"/>
     <use xlink:href="#DejaVuSans-Bold-20" transform="translate(610.546875 0)"/>
     <use xlink:href="#DejaVuSans-Bold-74" transform="translate(645.361328 0)"/>
     <use xlink:href="#DejaVuSans-Bold-68" transform="translate(693.164062 0)"/>
     <use xlink:href="#DejaVuSans-Bold-65" transform="translate(764.355469 0)"/>
     <use xlink:href="#DejaVuSans-Bold-20" transform="translate(832.177734 0)"/>
     <use xlink:href="#DejaVuSans-Bold-66" transform="translate(866.992188 0)"/>
     <use xlink:href="#DejaVuSans-Bold-6f" transform="translate(910.498047 0)"/>
     <use xlink:href="#DejaVuSans-Bold-75" transform="translate(979.199219 0)"/>
     <use xlink:href="#DejaVuSans-Bold-72" transform="translate(1050.390625 0)"/>
     <use xlink:href="#DejaVuSans-Bold-20" transform="translate(1099.707031 0)"/>
     <use xlink:href="#DejaVuSans-Bold-63" transform="translate(1134.521484 0)"/>
     <use xlink:href="#DejaVuSans-Bold-6f" transform="translate(1193.798828 0)"/>
     <use xlink:href="#DejaVuSans-Bold-6c" transform="translate(1262.5 0)"/>
     <use xlink:href="#DejaVuSans-Bold-75" transform="translate(1296.777344 0)"/>
     <use xlink:href="#DejaVuSans-Bold-6d" transform="translate(1367.96875 0)"/>
     <use xlink:href="#DejaVuSans-Bold-6e" transform="translate(1472.167969 0)"/>
     <use xlink:href="#DejaVuSans-Bold-20" transform="translate(1543.359375 0)"/>
     <use xlink:href="#DejaVuSans-Bold-6c" transform="translate(1578.173828 0)"/>
     <use xlink:href="#DejaVuSans-Bold-69" transform="translate(1612.451172 0)"/>
     <use xlink:href="#DejaVuSans-Bold-6e" transform="translate(1646.728516 0)"/>
     <use xlink:href="#DejaVuSans-Bold-65" transform="translate(1717.919922 0)"/>
     <use xlink:href="#DejaVuSans-Bold-73" transform="translate(1785.742188 0)"/>
    </g>
   </g>
  </g>
 </g>
 <defs>
  <clipPath id="p578793e0a5">
   <rect x="0" y="0" width="1008" height="720"/>
  </clipPath>
 </defs>
</svg>
